<svg width="47" height="40" viewBox="0 0 47 40" fill="none" xmlns="http://www.w3.org/2000/svg">
<path d="M8.2716 20.926H38.771C39.4106 20.926 39.9305 21.4745 39.8748 22.1188C39.2064 29.7905 32.1401 35.8273 23.5223 35.8273C14.9046 35.8273 7.83834 29.7905 7.16988 22.1188C7.11211 21.4745 7.63203 20.926 8.2716 20.926Z" fill="#FF6633"/>
<path d="M29.0264 9.44668C29.3669 9.44668 29.7052 9.29237 29.926 8.99627C31.0401 7.51573 33.1568 6.59404 35.449 6.59404C37.7412 6.59404 39.8579 7.51364 40.972 8.99627C41.3496 9.49882 42.0593 9.59474 42.5545 9.21313C43.0517 8.83153 43.1466 8.1142 42.769 7.61373C41.2134 5.54515 38.4777 4.31067 35.449 4.31067C32.4203 4.31067 29.6846 5.54515 28.1269 7.61373C27.7494 8.11628 27.8463 8.83153 28.3415 9.21313C28.5478 9.37161 28.7871 9.44668 29.0264 9.44668Z" fill="#414141"/>
<path d="M5.17487 9.44668C5.51529 9.44668 5.85365 9.29237 6.0744 8.99627C7.1885 7.51573 9.30528 6.59404 11.5974 6.59404C13.8896 6.59404 16.0064 7.51364 17.1205 8.99627C17.498 9.49882 18.2077 9.59474 18.7029 9.21313C19.2001 8.83153 19.295 8.1142 18.9175 7.61373C17.3619 5.54515 14.6261 4.31067 11.5974 4.31067C8.56874 4.31067 5.83302 5.54515 4.27534 7.61373C3.89779 8.11628 3.99476 8.83153 4.48991 9.21313C4.69623 9.37161 4.93555 9.44668 5.17487 9.44668Z" fill="#414141"/>
</svg>
