<svg width="1346" height="402" viewBox="0 0 1346 402" fill="none" xmlns="http://www.w3.org/2000/svg">
<path d="M683.999 391.922C683.999 391.922 608.283 294.367 629.873 206.928C651.461 119.488 685.161 19.0306 804.806 30.4384C962.789 45.5039 1042.99 14.2795 1102.88 22.359C1162.76 30.4384 1247.87 52.6462 1280.93 161.863C1314 271.08 1278.41 391.922 1278.41 391.922H683.999Z" fill="#E5FFDE"/>
<path d="M1043.61 185.539L1096.13 143.136C1097.23 142.248 1097.38 140.597 1096.4 139.587C1084.77 127.545 1064.36 127.156 1049.52 139.136C1034.68 151.116 1030.75 171.145 1040.08 185.054C1040.86 186.223 1042.51 186.427 1043.61 185.539Z" fill="#FF6633"/>
<path d="M1223.07 45.4462C1220.48 41.2545 1221.79 35.7443 1226 33.1387L1270.64 5.53953C1274.85 2.93395 1280.37 4.21971 1282.96 8.41135L1291.06 21.5035C1293.65 25.6951 1292.34 31.2053 1288.12 33.8109L1243.48 61.4101C1239.27 64.0157 1233.75 62.7299 1231.16 58.5383L1223.07 45.4462Z" fill="#1CB9FC"/>
<path d="M33.959 31.6389C38.2825 26.1327 50.7146 28.6788 61.7269 37.3258C72.7392 45.9727 78.1616 57.446 73.8381 62.9522C69.5146 68.4583 57.0825 65.9122 46.0702 57.2653C35.0579 48.6184 29.6355 37.1451 33.959 31.6389Z" fill="#FCA21C"/>
<path d="M611.067 369.349L583.335 308.258C582.754 306.978 581.204 306.421 579.987 307.115C565.506 315.306 560.053 334.85 567.888 352.11C575.722 369.37 594.018 378.133 609.722 372.622C611.044 372.157 611.648 370.629 611.067 369.349Z" fill="#FF6633"/>
<path d="M16.4856 353.513C19.7256 353.217 22.5934 355.616 22.8912 358.872L26.0451 393.357C26.3429 396.613 23.9578 399.492 20.7178 399.789L10.5983 400.714C7.35835 401.011 4.49049 398.612 4.19273 395.356L1.03879 360.87C0.741032 357.614 3.12614 354.735 6.36607 354.439L16.4856 353.513Z" fill="#1CB9FC"/>
<path d="M1266.48 316.641C1272.01 307.07 1292 308.27 1311.15 319.322C1330.29 330.373 1341.32 347.09 1335.8 356.661C1330.27 366.232 1310.28 365.031 1291.14 353.98C1271.99 342.929 1260.96 326.211 1266.48 316.641Z" fill="#FCA21C"/>
<path fill-rule="evenodd" clip-rule="evenodd" d="M725.592 41.3169C726.132 36.7051 730.318 33.3801 734.943 33.8905C745.357 35.0398 755.084 41.3238 760.769 51.172C766.455 61.0203 767.032 72.5855 762.822 82.1772C760.952 86.4376 755.98 88.4011 751.716 86.5628C747.452 84.7246 745.511 79.7807 747.381 75.5203C749.367 70.9942 749.265 65.0245 746.143 59.6166C743.02 54.207 737.901 51.1337 732.989 50.5916C728.364 50.0812 725.053 45.9288 725.592 41.3169Z" fill="#70C05B"/>
<path fill-rule="evenodd" clip-rule="evenodd" d="M279.357 335.381C284.157 337.631 286.245 343.366 284.022 348.19C279.016 359.052 268.697 367.316 255.978 369.916C243.259 372.516 230.526 368.962 221.66 360.938C217.722 357.374 217.392 351.28 220.923 347.327C224.453 343.373 230.509 343.057 234.447 346.621C238.631 350.407 245.132 352.453 252.117 351.025C259.103 349.597 264.28 345.164 266.642 340.041C268.865 335.217 274.558 333.131 279.357 335.381Z" fill="#70C05B"/>
<path d="M923.088 150.815H971.242C972.216 150.815 973.006 150.025 973.006 149.051V120.709C973.006 119.736 972.216 118.945 971.242 118.945H923.088C922.114 118.945 921.324 119.736 921.324 120.709V149.051C921.324 150.025 922.114 150.815 923.088 150.815Z" fill="white"/>
<path d="M926.177 124.747H969.271C969.569 124.747 969.811 124.505 969.811 124.207C969.811 123.909 969.569 123.667 969.271 123.667H926.177C925.879 123.667 925.638 123.909 925.638 124.207C925.638 124.505 925.879 124.747 926.177 124.747Z" fill="#61A3C5"/>
<path d="M926.177 130.881H969.271C969.569 130.881 969.811 130.639 969.811 130.341C969.811 130.043 969.569 129.801 969.271 129.801H926.177C925.879 129.801 925.638 130.043 925.638 130.341C925.638 130.639 925.879 130.881 926.177 130.881Z" fill="#61A3C5"/>
<path d="M941.272 137.014H969.273C969.571 137.014 969.813 136.773 969.813 136.475C969.813 136.177 969.571 135.935 969.273 135.935H941.272C940.974 135.935 940.732 136.177 940.732 136.475C940.732 136.773 940.974 137.014 941.272 137.014Z" fill="#61A3C5"/>
<path d="M925.858 137.014H937.033C937.33 137.014 937.572 136.773 937.572 136.475C937.572 136.177 937.33 135.935 937.033 135.935H925.858C925.56 135.935 925.318 136.177 925.318 136.475C925.318 136.773 925.56 137.014 925.858 137.014Z" fill="#61A3C5"/>
<path d="M951.672 143.148H969.271C969.569 143.148 969.811 142.906 969.811 142.609C969.811 142.311 969.569 142.069 969.271 142.069H951.672C951.374 142.069 951.132 142.311 951.132 142.609C951.132 142.906 951.374 143.148 951.672 143.148Z" fill="#61A3C5"/>
<path d="M925.858 143.148H947.725C948.023 143.148 948.265 142.906 948.265 142.609C948.265 142.311 948.023 142.069 947.725 142.069H925.858C925.56 142.069 925.318 142.311 925.318 142.609C925.318 142.906 925.56 143.148 925.858 143.148Z" fill="#61A3C5"/>
<path d="M937.129 149.405C937.075 149.619 928.755 160.447 928.703 160.127C928.649 159.808 929.664 148.498 929.664 148.498L937.129 149.405Z" fill="white"/>
<path d="M791.991 210.072H840.143C841.117 210.072 841.907 209.282 841.907 208.308V185.099C841.907 184.125 841.117 183.335 840.143 183.335H791.991C791.018 183.335 790.228 184.125 790.228 185.099V208.308C790.228 209.282 791.016 210.072 791.991 210.072Z" fill="white"/>
<path d="M795.081 190.138H838.174C838.472 190.138 838.714 189.896 838.714 189.598C838.714 189.3 838.472 189.058 838.174 189.058H795.081C794.783 189.058 794.541 189.3 794.541 189.598C794.539 189.896 794.781 190.138 795.081 190.138Z" fill="#61A3C5"/>
<path d="M810.174 196.272H838.174C838.472 196.272 838.714 196.03 838.714 195.732C838.714 195.434 838.472 195.192 838.174 195.192H810.174C809.876 195.192 809.634 195.434 809.634 195.732C809.634 196.03 809.876 196.272 810.174 196.272Z" fill="#61A3C5"/>
<path d="M794.758 196.272H805.933C806.231 196.272 806.473 196.03 806.473 195.732C806.473 195.434 806.231 195.192 805.933 195.192H794.758C794.461 195.192 794.219 195.434 794.219 195.732C794.219 196.03 794.461 196.272 794.758 196.272Z" fill="#61A3C5"/>
<path d="M820.573 202.405H838.172C838.47 202.405 838.712 202.164 838.712 201.866C838.712 201.568 838.47 201.326 838.172 201.326H820.573C820.275 201.326 820.033 201.568 820.033 201.866C820.033 202.164 820.275 202.405 820.573 202.405Z" fill="#61A3C5"/>
<path d="M794.758 202.405H816.626C816.924 202.405 817.166 202.164 817.166 201.866C817.166 201.568 816.924 201.326 816.626 201.326H794.758C794.461 201.326 794.219 201.568 794.219 201.866C794.219 202.164 794.461 202.405 794.758 202.405Z" fill="#61A3C5"/>
<path d="M806.031 208.662C805.977 208.876 797.656 219.704 797.605 219.384C797.551 219.065 798.565 207.756 798.565 207.756L806.031 208.662Z" fill="white"/>
<path d="M1096.71 196.809H1048.55C1047.58 196.809 1046.79 196.019 1046.79 195.045V171.836C1046.79 170.862 1047.58 170.072 1048.55 170.072H1096.71C1097.68 170.072 1098.47 170.862 1098.47 171.836V195.045C1098.47 196.019 1097.68 196.809 1096.71 196.809Z" fill="white"/>
<path d="M1093.62 176.875H1050.52C1050.23 176.875 1049.98 176.633 1049.98 176.335C1049.98 176.037 1050.23 175.795 1050.52 175.795H1093.62C1093.92 175.795 1094.16 176.037 1094.16 176.335C1094.16 176.633 1093.92 176.875 1093.62 176.875Z" fill="#61A3C5"/>
<path d="M1078.52 183.009H1050.52C1050.23 183.009 1049.98 182.767 1049.98 182.469C1049.98 182.171 1050.23 181.929 1050.52 181.929H1078.52C1078.82 181.929 1079.06 182.171 1079.06 182.469C1079.06 182.767 1078.82 183.009 1078.52 183.009Z" fill="#61A3C5"/>
<path d="M1093.94 183.009H1082.76C1082.47 183.009 1082.22 182.767 1082.22 182.469C1082.22 182.171 1082.47 181.929 1082.76 181.929H1093.94C1094.24 181.929 1094.48 182.171 1094.48 182.469C1094.48 182.767 1094.24 183.009 1093.94 183.009Z" fill="#61A3C5"/>
<path d="M1068.13 189.143H1050.53C1050.23 189.143 1049.99 188.901 1049.99 188.603C1049.99 188.305 1050.23 188.063 1050.53 188.063H1068.13C1068.42 188.063 1068.67 188.305 1068.67 188.603C1068.67 188.901 1068.42 189.143 1068.13 189.143Z" fill="#61A3C5"/>
<path d="M1093.94 189.143H1072.07C1071.77 189.143 1071.53 188.901 1071.53 188.603C1071.53 188.305 1071.77 188.063 1072.07 188.063H1093.94C1094.24 188.063 1094.48 188.305 1094.48 188.603C1094.48 188.901 1094.24 189.143 1093.94 189.143Z" fill="#61A3C5"/>
<path d="M1082.67 195.399C1082.72 195.613 1091.04 206.441 1091.09 206.121C1091.15 205.802 1090.13 194.493 1090.13 194.493L1082.67 195.399Z" fill="white"/>
<path d="M994.178 187.927C993.868 187.407 993.19 187.238 992.65 187.515L989.291 189.231C989.185 189.285 989.057 189.266 988.973 189.184C988.848 189.063 988.865 188.858 989.008 188.758L993.591 185.589C994.116 185.226 994.17 184.565 993.712 184.121C993.254 183.676 992.449 183.611 991.925 183.974L987.253 187.206C987.145 187.281 986.998 187.268 986.903 187.178L986.836 187.113C986.726 187.007 986.724 186.832 986.829 186.722L991.214 182.195C991.635 181.759 991.676 181.061 991.268 180.612C990.821 180.12 990.061 180.113 989.606 180.584L985.195 185.14C985.089 185.25 984.915 185.252 984.804 185.146L984.591 184.939C984.491 184.842 984.478 184.686 984.56 184.576L988.075 179.848C988.438 179.362 988.386 178.662 987.924 178.272C987.417 177.842 986.661 177.935 986.273 178.46C986.273 178.46 980.528 185.381 979.541 186.392L978.876 183.168C978.865 182.54 978.349 182.039 977.719 182.048C977.091 182.059 976.59 182.575 976.598 183.205L975.862 190.498C975.869 190.909 976.456 191.481 977.039 191.828C981.495 196.857 982.222 197.595 983.548 198.839L988.367 193.517C989.757 191.982 991.415 190.71 993.261 189.769L993.725 189.531C994.299 189.227 994.517 188.497 994.178 187.927Z" fill="#FE9F73"/>
<path d="M934.859 386.73L919.625 386.94L919.405 372.571L934.58 370.675L934.859 386.73Z" fill="#FE9F73"/>
<path d="M950.511 389.317H919.408V383.058C919.408 383.058 921.671 380.052 925.116 381.587C925.116 381.587 930.216 385.279 934.81 380.868L946.325 385.813C946.323 385.813 950.511 387.188 950.511 389.317Z" fill="#3AA1C9"/>
<path d="M919.405 391.508H951.43C951.668 391.508 951.86 391.316 951.86 391.078V389.748C951.86 389.511 951.668 389.319 951.43 389.319H919.405V391.508Z" fill="#472A31"/>
<path d="M938.216 382.33C937.173 383.96 935.077 387.233 933.745 389.317H931.625C932.815 387.456 935.312 383.556 936.554 381.615L938.216 382.33Z" fill="#D7E4F7"/>
<path d="M937.142 389.317H935.022C935.992 387.803 937.881 384.852 939.217 382.762L940.879 383.476C939.757 385.232 938.2 387.665 937.142 389.317Z" fill="#D7E4F7"/>
<path d="M904.142 386.73L888.908 386.94L888.69 372.571L903.863 370.675L904.142 386.73Z" fill="#FE9F73"/>
<path d="M910.253 262.36C910.758 277.197 912.952 335.239 917.565 373.212C917.87 375.715 919.99 377.604 922.511 377.597C925.303 377.591 929.184 377.256 933.487 375.944C935.566 375.309 937.01 373.417 937.045 371.243L938.921 255.7C938.925 255.419 938.906 255.138 938.863 254.86L938.774 254.29C938.291 251.144 935.026 249.25 932.056 250.39L913.45 257.539C911.464 258.299 910.18 260.234 910.253 262.36Z" fill="#FF424D"/>
<path d="M885.305 259.366C885.305 259.366 884.038 330.735 887.341 374.76C887.497 376.844 889.152 378.491 891.236 378.649C894.185 378.873 898.675 378.839 903.74 377.496C905.456 377.04 906.706 375.557 906.86 373.787L915.692 271.435L921.13 243.017L885.305 259.366Z" fill="#EF3A4C"/>
<path d="M919.794 389.317H888.69V383.058C888.69 383.058 890.953 380.052 894.399 381.587C894.399 381.587 899.498 385.279 904.092 380.868L915.607 385.813C915.605 385.813 919.794 387.188 919.794 389.317Z" fill="#4CB7D8"/>
<path d="M888.69 391.508H920.715C920.953 391.508 921.145 391.316 921.145 391.078V389.748C921.145 389.511 920.953 389.319 920.715 389.319H888.69V391.508Z" fill="#683D46"/>
<path d="M907.498 382.33C906.456 383.96 904.359 387.233 903.027 389.317H900.907C902.097 387.456 904.595 383.556 905.836 381.615L907.498 382.33Z" fill="#D7E4F7"/>
<path d="M906.428 389.317H904.308C905.277 387.803 907.166 384.852 908.502 382.762L910.165 383.476C909.042 385.232 907.486 387.665 906.428 389.317Z" fill="#D7E4F7"/>
<path d="M940.018 277.143L940.193 276.899L939.276 221.822C939.276 221.822 956.184 233.971 961.251 234.204C966.318 234.437 987.27 201.119 987.27 201.119C982.855 190.261 973.557 188.756 973.557 188.756L956.255 209.075L935.985 189.376C933.282 187.618 912.505 187.238 912.505 187.238C912.505 187.238 896.195 186.34 893.494 188.098C890.791 189.855 873.511 219.132 871.968 232.263C870.424 245.397 871.968 253.901 881.331 255.451L884.738 255.529L884.999 277.141C885.001 277.143 903.87 281.695 940.018 277.143Z" fill="#61A3C5"/>
<path d="M973.561 188.756L956.259 209.075L935.989 189.376C934.975 188.715 931.408 188.249 927.35 187.925L915.169 219.013L896.777 187.238C890.335 187.301 888.671 188.922 887.272 189.833C884.569 191.591 873.515 219.132 871.97 232.263C870.426 245.397 871.97 253.901 881.333 255.451L884.74 255.529L883.766 277.141C883.766 277.141 903.872 281.69 940.018 277.141L940.193 276.897L939.275 221.82C939.275 221.82 956.184 233.969 961.251 234.202C966.318 234.435 987.27 201.117 987.27 201.117C982.857 190.261 973.561 188.756 973.561 188.756Z" fill="#FECC86"/>
<path d="M889.923 236.024L889.536 235.536L893.303 232.125L894.741 213.419L895.335 213.471L893.878 232.442L889.923 236.024Z" fill="#21111D"/>
<path d="M884.731 255.851L881.285 255.769C876.689 255.007 873.744 252.569 872.278 248.311C871.007 244.619 870.814 239.507 871.671 232.224L872.263 232.304C870.516 247.148 873.152 253.765 881.356 255.134L884.741 255.212L884.731 255.851Z" fill="#21111D"/>
<path d="M956.466 214.511L955.972 209.23L936.343 190.155C934.905 188.756 932.107 188.739 932.079 188.739V188.1C932.206 188.1 935.134 188.117 936.742 189.682L956.542 208.924L957.06 214.449L956.466 214.511Z" fill="#21111D"/>
<path d="M956.479 209.291L956.039 208.859L973.451 188.411L973.61 188.439C973.703 188.454 982.907 190.179 987.546 200.983L987.004 201.251C982.831 191.533 974.88 189.378 973.671 189.104L956.479 209.291Z" fill="#21111D"/>
<path d="M917.423 279.361C917.246 279.361 917.071 279.361 916.9 279.358L916.907 278.719C924.368 278.804 937.673 277.124 939.718 276.86L938.977 216.526L939.573 216.517L940.32 277.426L940.054 277.461C939.908 277.48 925.609 279.361 917.423 279.361Z" fill="#21111D"/>
<path d="M906.841 199.189C903.836 197.183 901.654 194.074 900.697 190.44L901.272 190.267C902.187 193.75 904.277 196.725 907.157 198.647L906.841 199.189Z" fill="#21111D"/>
<path d="M907.694 164.279C907.694 164.279 912.21 162.357 916.222 163.737C918.544 164.536 920.086 166.742 920.086 169.199V171.6L907.726 166.321C907.726 166.321 905.77 167.245 905.928 166.965C906.083 166.684 907.694 164.279 907.694 164.279Z" fill="#FE9F73"/>
<path d="M920.085 168.927V179.053C920.085 179.053 920.236 182.672 917.069 183.123L917.66 187.951C917.881 189.745 916.808 191.464 915.085 192.01C914.243 192.278 913.237 192.472 912.095 192.472C908.476 192.472 906.516 189.758 906.216 188.402C905.914 187.046 906.818 180.563 906.818 180.563L906.708 177.378L907.121 165.035L920.085 168.927Z" fill="#FE9F73"/>
<path d="M911.35 173.703C911.313 173.703 911.274 173.69 911.246 173.66C911.185 173.602 911.183 173.507 911.242 173.446C911.263 173.425 913.336 171.304 915.231 172.831C915.296 172.883 915.307 172.978 915.255 173.043C915.203 173.107 915.108 173.118 915.043 173.066C913.364 171.715 911.537 173.576 911.462 173.656C911.429 173.688 911.391 173.703 911.35 173.703Z" fill="#21111D"/>
<path d="M917.565 172.799C917.522 172.799 917.481 172.781 917.451 172.747C917.397 172.684 917.403 172.589 917.466 172.535C917.526 172.483 918.964 171.253 919.873 172.032C919.936 172.086 919.944 172.181 919.89 172.244C919.836 172.306 919.741 172.315 919.679 172.261C918.966 171.65 917.677 172.751 917.664 172.764C917.634 172.786 917.6 172.799 917.565 172.799Z" fill="#21111D"/>
<path d="M914.398 174.312C914.398 174.563 914.195 174.763 913.946 174.763C913.696 174.763 913.495 174.56 913.495 174.312C913.495 174.062 913.698 173.861 913.946 173.861C914.197 173.861 914.398 174.062 914.398 174.312Z" fill="black"/>
<path d="M918.755 174.312C919.004 174.312 919.206 174.11 919.206 173.861C919.206 173.612 919.004 173.41 918.755 173.41C918.506 173.41 918.304 173.612 918.304 173.861C918.304 174.11 918.506 174.312 918.755 174.312Z" fill="black"/>
<path d="M907.695 164.121C907.695 164.121 903.865 163.938 902.893 167.289C901.922 170.64 903.577 172.41 903.61 173.41C903.644 174.409 902.966 181.143 907.692 180.64L908.968 169.517L907.323 165.089L907.695 164.121Z" fill="#FECC86"/>
<path d="M910.663 174.154C910.663 175.653 909.447 176.868 907.949 176.868C906.451 176.868 905.235 175.653 905.235 174.154C905.235 172.656 906.451 171.441 907.949 171.441C909.447 171.441 910.663 172.656 910.663 174.154Z" fill="#FE9F73"/>
<path d="M907.748 175.819C907.185 175.819 906.807 175.396 906.684 174.973C906.537 174.472 906.706 173.986 907.112 173.733C907.712 173.36 908.258 173.6 908.536 173.783C908.42 173.474 908.236 173.25 907.988 173.116C907.453 172.822 906.79 173.036 906.783 173.038C906.745 173.051 906.701 173.03 906.688 172.991C906.676 172.952 906.697 172.909 906.736 172.896C906.766 172.885 907.466 172.658 908.059 172.984C908.403 173.172 908.634 173.505 908.752 173.973L908.817 174.236L908.625 174.047C908.597 174.018 907.954 173.392 907.189 173.865C906.766 174.126 906.729 174.606 906.827 174.934C906.926 175.275 907.228 175.672 907.746 175.672C907.751 175.672 907.757 175.672 907.761 175.672C907.802 175.672 907.837 175.705 907.837 175.746C907.837 175.787 907.805 175.821 907.764 175.821C907.759 175.819 907.755 175.819 907.748 175.819Z" fill="#F07162"/>
<path d="M909.73 180.051C909.73 180.051 909.942 186.107 917.507 186.686L917.071 183.125C917.071 183.125 912.166 184.112 909.73 180.051Z" fill="#F07162"/>
<path d="M915.993 177.363C915.961 177.363 915.933 177.343 915.922 177.311C915.909 177.272 915.93 177.229 915.969 177.216L917.48 176.717L917.003 173.161C916.997 173.12 917.027 173.081 917.068 173.077C917.109 173.071 917.148 173.101 917.152 173.142L917.647 176.823L916.017 177.363C916.01 177.363 916.002 177.363 915.993 177.363Z" fill="#F07162"/>
<path d="M906.708 181.405L907.233 176.3L908.5 176.441V181.551L906.708 181.405Z" fill="#FE9F73"/>
<path d="M908.402 164.02C908.402 164.02 907.515 166.138 908.97 169.672C910.425 173.207 905.235 168.355 905.235 168.355C905.235 168.355 905.596 163.182 908.402 164.02Z" fill="#FECC86"/>
<path d="M908.973 169.672C908.973 169.672 920.497 168.99 921.207 166.289C921.917 163.59 919.208 163.519 919.208 163.519C919.208 163.519 919.715 159.682 916.235 160.82C912.755 161.958 906.304 161.809 904.491 165.035C902.675 168.26 908.973 169.672 908.973 169.672Z" fill="#FECC86"/>
<path d="M908.733 171.6L909.23 173.703L909.731 173.075C909.731 173.075 910.715 170.054 910.035 168.606C909.355 167.157 906.633 169.24 906.633 169.24L908.733 171.6Z" fill="#FECC86"/>
<path d="M906.238 185.781L913.139 191.017L917.507 186.686L920.419 187.504L917.507 195.266L913.334 192.705L909.029 195.546L903.243 187.012L906.238 185.781Z" fill="#EDFCFB"/>
<path d="M917.988 178.634C917.94 178.622 914.836 178.352 914.836 178.352C914.836 178.352 915.145 179.662 916.298 179.766C917.453 179.869 917.988 178.634 917.988 178.634Z" fill="#FBFDFC"/>
<path d="M933.997 229.096H933.924H926.271L928.207 251.882H933.924H933.997H939.921L941.651 229.096H933.997Z" fill="#49263E"/>
<path d="M939.607 225.099H933.999H933.925H928.317C927.66 225.099 927.127 225.637 927.127 226.298H933.925H933.999H940.797C940.797 225.635 940.264 225.099 939.607 225.099Z" fill="#CE1D37"/>
<path d="M941.48 226.913C941.404 226.555 941.091 226.298 940.728 226.298H933.999H933.926H927.196C926.834 226.298 926.519 226.555 926.445 226.913L925.806 229.959C925.705 230.441 926.069 230.894 926.557 230.894H933.926H933.999H941.367C941.855 230.894 942.22 230.441 942.119 229.959L941.48 226.913Z" fill="#EF3A4C"/>
<path d="M926.65 236.093L927.151 245.356H933.913H934.008H940.77L941.27 236.093H934.008H933.913H926.65Z" fill="#EF3A4C"/>
<path d="M940.77 245.515H926.998L926.488 236.1C926.484 236.011 926.551 235.936 926.642 235.929C926.73 235.925 926.806 235.992 926.81 236.08L927.302 245.191H940.77C940.858 245.191 940.931 245.263 940.931 245.353C940.931 245.444 940.86 245.515 940.77 245.515Z" fill="#21111D"/>
<path d="M937.587 233.848C937.561 233.848 937.533 233.841 937.507 233.826C937.429 233.783 937.403 233.684 937.447 233.606L938.761 231.285C938.805 231.207 938.904 231.181 938.982 231.225C939.059 231.268 939.085 231.367 939.042 231.445L937.727 233.766C937.697 233.82 937.643 233.848 937.587 233.848Z" fill="#21111D"/>
<path d="M937.807 235.18C937.779 235.18 937.751 235.173 937.727 235.158C937.649 235.113 937.623 235.016 937.669 234.938L938.858 232.896C938.904 232.818 939.001 232.792 939.079 232.837C939.156 232.883 939.182 232.98 939.137 233.058L937.947 235.1C937.917 235.152 937.863 235.18 937.807 235.18Z" fill="#21111D"/>
<path d="M936.371 242.791C939.098 240.217 936.241 239.783 936.241 239.783C937.571 238.241 937.263 237.52 936.775 237.19C936.416 236.948 935.967 236.92 935.572 237.084C934.318 237.607 930.497 239.213 928.161 240.368C926.501 240.243 927.029 237.244 927.772 235.707C928.154 234.914 928.18 233.608 926.38 234.925C924.907 236 922.694 239.543 922.694 239.543L913.441 238.591L914.821 252.252C914.821 252.252 925.382 252.094 926.973 252.081C928.564 252.068 933.895 250.125 935.503 248.624C938.424 245.9 936.587 245.761 936.587 245.761C939.374 242.629 936.371 242.791 936.371 242.791Z" fill="#FE9F73"/>
<path d="M932.901 242.039C932.821 242.046 932.742 241.998 932.709 241.914C932.668 241.81 932.716 241.69 932.813 241.646C934.181 241.042 936.111 239.63 936.131 239.617C936.217 239.552 936.338 239.578 936.396 239.671C936.457 239.764 936.433 239.891 936.347 239.956C936.267 240.014 934.365 241.405 932.957 242.026C932.94 242.033 932.921 242.037 932.901 242.039Z" fill="#F07162"/>
<path d="M933.089 244.628C932.999 244.637 932.914 244.574 932.891 244.477C932.863 244.367 932.923 244.254 933.027 244.226C934.767 243.725 936.248 242.635 936.261 242.624C936.347 242.56 936.468 242.583 936.526 242.676C936.587 242.769 936.565 242.896 936.479 242.961C936.416 243.006 934.933 244.103 933.124 244.624C933.113 244.626 933.102 244.628 933.089 244.628Z" fill="#F07162"/>
<path d="M933.731 247.545C933.643 247.551 933.558 247.493 933.532 247.4C933.502 247.292 933.56 247.178 933.66 247.145C935.152 246.666 936.458 245.613 936.471 245.602C936.555 245.533 936.676 245.552 936.738 245.641C936.803 245.731 936.786 245.859 936.702 245.928C936.646 245.973 935.326 247.037 933.768 247.538C933.757 247.54 933.744 247.543 933.731 247.545Z" fill="#F07162"/>
<path d="M908.123 233.28L917.432 233.919C917.432 233.919 919.314 240.28 917.052 253.173C916.832 254.426 916.37 256.565 916.37 256.565C916.37 256.565 906.916 257.373 905.433 254.082C904.5 252.016 906.538 243.093 906.538 243.093L908.123 233.28Z" fill="#FECC86"/>
<path d="M916.6 256.893L884.73 255.851L884.748 255.212L916.138 256.237C916.587 254.247 919.461 240.856 917.22 234.226L893.571 232.602L893.61 231.963L917.641 233.612L917.71 233.802C920.32 241.053 916.81 256.01 916.658 256.643L916.6 256.893Z" fill="#21111D"/>
<path d="M926.649 233.688L926.919 236.093H928.731L928.469 233.511L926.649 233.688Z" fill="#49263E"/>
<path d="M926.92 236.093L927.239 240.491C927.239 240.491 927.922 240.709 929.962 239.52C932.002 238.33 928.61 236.093 928.61 236.093H926.92Z" fill="#EF3A4C"/>
<path d="M995.577 154.274C995.577 154.274 999.193 156.139 997.384 163.435L996.018 162.729L996.48 158.853L995.577 154.274Z" fill="black"/>
<path d="M982.909 158.799V169.491C982.909 169.491 982.76 173.105 985.902 173.556L985.314 178.377C985.096 180.17 986.161 181.886 987.873 182.43C988.708 182.696 989.708 182.892 990.839 182.892C994.429 182.892 996.374 180.182 996.674 178.827C996.974 177.471 996.076 170.996 996.076 170.996L996.186 167.813L995.778 155.485L982.909 158.799Z" fill="#FE9F73"/>
<path d="M991.579 164.145C991.616 164.145 991.655 164.132 991.683 164.104C991.744 164.046 991.746 163.951 991.687 163.89C991.666 163.869 989.608 161.751 987.728 163.275C987.663 163.327 987.652 163.422 987.706 163.486C987.758 163.551 987.853 163.562 987.916 163.51C989.583 162.159 991.396 164.02 991.472 164.1C991.502 164.13 991.541 164.145 991.579 164.145Z" fill="black"/>
<path d="M985.411 163.243C985.452 163.243 985.495 163.225 985.523 163.191C985.577 163.128 985.571 163.033 985.508 162.979C985.448 162.927 984.021 161.699 983.118 162.476C983.056 162.53 983.049 162.625 983.101 162.688C983.155 162.75 983.25 162.759 983.313 162.705C984.019 162.094 985.299 163.195 985.312 163.206C985.342 163.23 985.377 163.243 985.411 163.243Z" fill="black"/>
<path d="M988.555 164.754C988.555 165.004 988.755 165.205 989.004 165.205C989.252 165.205 989.453 165.002 989.453 164.754C989.453 164.503 989.252 164.303 989.004 164.303C988.755 164.303 988.555 164.506 988.555 164.754Z" fill="black"/>
<path d="M983.783 164.303C983.783 164.553 983.984 164.754 984.232 164.754C984.481 164.754 984.681 164.551 984.681 164.303C984.681 164.052 984.481 163.851 984.232 163.851C983.984 163.851 983.783 164.052 983.783 164.303Z" fill="black"/>
<path d="M993.792 164.911C993.792 166.408 994.999 167.621 996.486 167.621C997.974 167.621 999.181 166.408 999.181 164.911C999.181 163.415 997.974 162.202 996.486 162.202C994.999 162.202 993.792 163.413 993.792 164.911Z" fill="#FE9F73"/>
<path d="M996.683 166.572C997.242 166.572 997.616 166.149 997.739 165.725C997.884 165.225 997.717 164.739 997.314 164.486C996.718 164.113 996.176 164.352 995.9 164.536C996.016 164.229 996.198 164.005 996.444 163.869C996.975 163.575 997.633 163.789 997.64 163.791C997.679 163.804 997.722 163.782 997.735 163.743C997.748 163.705 997.726 163.661 997.687 163.648C997.657 163.638 996.962 163.411 996.372 163.737C996.033 163.925 995.802 164.257 995.686 164.724L995.621 164.985L995.811 164.795C995.837 164.767 996.478 164.141 997.236 164.614C997.655 164.875 997.692 165.352 997.597 165.682C997.497 166.023 997.199 166.421 996.685 166.421C996.681 166.421 996.675 166.421 996.67 166.421C996.629 166.421 996.597 166.453 996.595 166.494C996.595 166.535 996.627 166.57 996.668 166.57C996.673 166.572 996.679 166.572 996.683 166.572Z" fill="#F07162"/>
<path d="M982.388 167.79C982.388 167.79 981.41 175.029 986.188 175.288C993.023 175.655 993.686 171.73 994.092 168.517L994.161 161.887L993.94 159.963C993.457 160.514 993.161 161.202 993.096 161.934C992.954 163.523 992.604 167.807 992.211 167.997C991.654 168.264 983.453 167.092 982.388 167.79Z" fill="black"/>
<path d="M986.97 167.8C987.002 167.8 987.03 167.781 987.041 167.748C987.054 167.71 987.033 167.666 986.994 167.653L985.493 167.155L985.966 163.603C985.973 163.562 985.942 163.523 985.901 163.519C985.86 163.512 985.824 163.543 985.817 163.584L985.327 167.261L986.944 167.798C986.955 167.8 986.963 167.8 986.97 167.8Z" fill="#F07162"/>
<path d="M988.131 169.268C988.086 169.26 985.169 169.191 985.169 169.191C985.169 169.191 985.536 170.404 986.62 170.432C987.703 170.46 988.131 169.268 988.131 169.268Z" fill="#FBFDFC"/>
<path d="M984.996 178.388L985.469 175.659C985.469 175.659 993.537 175.45 996.736 174.668L997.174 178.481C997.174 178.481 990.013 181.78 984.996 178.388Z" fill="#CEE4EF"/>
<path d="M993.954 160.086L995.305 158.853L996.704 162.217C996.704 162.217 994.975 162.502 994.945 164.303C994.915 166.101 995.886 168.91 992.771 172.947C989.655 176.983 993.021 166.924 993.051 166.572C993.084 166.222 993.954 160.086 993.954 160.086Z" fill="black"/>
<path d="M995.577 154.274C994.135 152.842 989.131 152.026 985.562 154.177V154.172C981.497 156.161 982.775 160.209 982.909 160.33L982.961 160.289C982.941 160.382 982.922 160.477 982.909 160.57C982.909 160.57 983.08 160.298 983.444 159.92L985.042 158.696C985.938 158.19 987.138 157.756 988.695 157.655C990.238 157.553 991.586 157.64 992.693 157.981C992.987 158.899 993.224 160.719 992.881 164.303C992.356 169.769 994.744 163.139 995.614 160.598C995.8 161.073 995.936 161.606 996.003 162.217C996 162.217 998.468 157.141 995.577 154.274Z" fill="black"/>
<path d="M982.909 161.802C982.909 161.802 982.803 159.609 982.907 159.127C983.01 158.646 987.896 157.266 990.571 157.633C993.246 158 988.06 160.945 988.002 160.945C987.944 160.947 982.909 161.802 982.909 161.802Z" fill="#FE9F73"/>
<path d="M992.182 158.197L994.766 155.792L992.333 159.309L992.182 158.197Z" fill="#FE9F73"/>
<path d="M992.181 153.462C992.181 153.462 991.654 148.276 994.541 149.405C997.425 150.532 997.922 152.922 995.307 154.501C992.693 156.077 992.181 153.462 992.181 153.462Z" fill="black"/>
<path d="M1000.36 387.242L1013.38 387.421L1013.57 375.14L1000.6 373.521L1000.36 387.242Z" fill="#FE9F73"/>
<path d="M986.985 389.453H1013.57V384.103C1013.57 384.103 1011.63 381.535 1008.69 382.846C1008.69 382.846 1004.33 386.002 1000.41 382.231L990.565 386.456C990.565 386.456 986.985 387.633 986.985 389.453Z" fill="#4C222E"/>
<path d="M1013.57 391.325H986.234C986.011 391.325 985.832 391.145 985.832 390.923V389.854C985.832 389.632 986.011 389.453 986.234 389.453H1013.57V391.325Z" fill="#8CD2F9"/>
<path d="M970.895 387.242L983.913 387.421L984.1 375.14L971.132 373.521L970.895 387.242Z" fill="#FE9F73"/>
<path d="M957.517 389.453H984.099V384.103C984.099 384.103 982.165 381.535 979.222 382.846C979.222 382.846 974.863 386.002 970.938 382.231L961.096 386.456C961.096 386.456 957.517 387.633 957.517 389.453Z" fill="#4C222E"/>
<path d="M984.101 391.325H956.765C956.542 391.325 956.363 391.145 956.363 390.923V389.854C956.363 389.632 956.542 389.453 956.765 389.453H984.101V391.325Z" fill="#8CD2F9"/>
<path d="M970.537 276.908C972.525 279.464 973.041 276.945 973.041 276.945C974.25 278.208 974.863 277.968 975.165 277.549C975.385 277.242 975.433 276.845 975.318 276.485C974.954 275.342 973.827 271.86 972.993 269.725C973.188 268.254 975.649 268.876 976.884 269.617C977.52 269.997 978.604 270.087 977.609 268.416C976.795 267.052 973.973 264.903 973.973 264.903L975.267 256.719L963.848 257.252C963.848 257.252 963.406 266.657 963.33 268.073C963.255 269.489 964.578 274.33 965.737 275.839C967.84 278.577 968.056 276.949 968.056 276.949C970.508 279.589 970.537 276.908 970.537 276.908Z" fill="#FE9F73"/>
<path d="M971.349 273.859C971.347 273.788 971.392 273.719 971.463 273.695C971.552 273.665 971.649 273.712 971.679 273.801C972.106 275.051 973.175 276.839 973.186 276.856C973.233 276.936 973.207 277.042 973.128 277.089C973.046 277.137 972.942 277.111 972.894 277.031C972.849 276.955 971.798 275.194 971.36 273.911C971.353 273.894 971.349 273.877 971.349 273.859Z" fill="#F07162"/>
<path d="M969.19 273.896C969.187 273.816 969.243 273.743 969.326 273.725C969.418 273.706 969.507 273.766 969.526 273.859C969.848 275.433 970.673 276.804 970.681 276.819C970.731 276.899 970.705 277.005 970.625 277.055C970.545 277.104 970.44 277.078 970.39 276.999C970.355 276.94 969.526 275.565 969.192 273.931C969.19 273.918 969.19 273.907 969.19 273.896Z" fill="#F07162"/>
<path d="M966.732 274.319C966.73 274.241 966.784 274.168 966.864 274.151C966.955 274.129 967.048 274.185 967.069 274.278C967.387 275.63 968.19 276.845 968.198 276.858C968.25 276.936 968.229 277.042 968.151 277.096C968.073 277.148 967.967 277.126 967.913 277.048C967.879 276.996 967.067 275.768 966.735 274.358C966.735 274.343 966.732 274.33 966.732 274.319Z" fill="#F07162"/>
<path d="M962.795 260.782L962.998 264.761C962.998 264.761 965.073 266.147 968.887 266.044L967.929 260.782H962.795Z" fill="#E2F2F1"/>
<path d="M993.902 248.67C993.902 248.67 992.175 330.12 986.229 377.127C986.229 377.127 978.31 379.618 968.351 374.961L967.928 254.914L966.49 236.929L993.902 248.67Z" fill="#3AAAA4"/>
<path d="M1014.8 249.458C1014.8 249.458 1018.28 329.751 1014.39 377.064C1014.39 377.064 1006.99 381.725 996.843 377.69L984.574 262.33L979.364 231.464L1014.8 249.458Z" fill="#7FC6A6"/>
<path d="M1004.34 379.51C1009.94 379.51 1014.44 377.34 1014.51 377.31L1014.63 377.25L1014.66 377.114C1017.99 359.066 1015.86 270.133 1015.84 269.237C1015.84 269.088 1015.72 268.969 1015.57 268.969C1015.57 268.969 1015.56 268.969 1015.56 268.969C1015.41 268.973 1015.29 269.099 1015.29 269.25C1015.32 270.144 1017.43 358.567 1014.14 376.874C1013.03 377.379 1004.66 380.942 996.957 377.44C996.821 377.377 996.657 377.437 996.594 377.576C996.531 377.714 996.592 377.876 996.73 377.938C999.29 379.102 1001.92 379.51 1004.34 379.51Z" fill="black"/>
<path d="M980.527 378.014C982.332 378.014 984.267 377.837 986.287 377.397C986.434 377.364 986.529 377.217 986.497 377.071C986.464 376.922 986.315 376.831 986.171 376.861C977.075 378.85 969.72 375.356 968.625 374.797L968.204 266.039C968.204 265.888 968.081 265.767 967.93 265.767C967.779 265.767 967.656 265.89 967.658 266.041L968.081 375.125L968.222 375.203C968.282 375.237 973.373 378.014 980.527 378.014Z" fill="black"/>
<path d="M971.625 179.643C971.625 179.643 965.128 182.294 964.045 187.437C962.961 192.58 960.146 254.672 962.095 260.782H971.625V179.643Z" fill="#4C222E"/>
<path d="M1018.16 215.431L1018.67 255.192C1018.67 255.192 987.862 263.969 967.931 253.504C967.931 253.504 971.417 183.615 972.043 180.537C972.782 176.909 992.663 176.614 1000.96 177.503C1000.96 177.503 1013.82 177.181 1020.69 180.977L1018.16 215.431Z" fill="#E2F2F1"/>
<path d="M1018.67 204.811L1018.02 265.765C1018.02 265.765 1002.27 271.819 994.308 268.634C994.308 268.634 994.355 179.792 997.604 177.082C998.006 177.093 1006.18 177.25 1012.02 177.982C1017.86 178.714 1018.67 204.811 1018.67 204.811Z" fill="#4C222E"/>
<path d="M984.423 177.082C984.423 177.082 982.778 256.788 981.154 268.634C981.154 268.634 974.531 269.09 966.085 266.05C966.085 266.05 967.605 182.901 969.785 180.679C971.964 178.459 984.423 177.082 984.423 177.082Z" fill="#4C222E"/>
<path d="M996.557 177.192C996.557 177.192 986.249 176.948 984.521 177.274C984.521 177.274 985.879 181.335 986.102 181.497C986.324 181.659 993.002 183.019 993.002 183.019C993.002 183.019 995.279 181.679 995.381 181.223C995.482 180.765 996.557 177.192 996.557 177.192Z" fill="#E2F2F1"/>
<path d="M1018.67 224.631C1018.82 224.631 1018.95 224.508 1018.95 224.357V211.396C1018.95 211.245 1018.82 211.122 1018.67 211.122C1018.52 211.122 1018.4 211.245 1018.4 211.396V224.357C1018.4 224.508 1018.52 224.631 1018.67 224.631Z" fill="black"/>
<path d="M994.31 268.909C994.461 268.909 994.584 268.785 994.584 268.634C994.448 212.072 995.996 192.413 996.011 192.221C996.024 192.07 995.912 191.938 995.761 191.926C995.614 191.917 995.478 192.025 995.465 192.176C995.45 192.368 993.9 212.041 994.036 268.634C994.036 268.785 994.159 268.909 994.31 268.909Z" fill="black"/>
<path d="M966.084 266.324C966.087 266.324 966.089 266.324 966.091 266.324C966.242 266.32 966.363 266.195 966.359 266.044C965.823 241.277 970.178 187.72 970.221 187.182C970.234 187.031 970.122 186.899 969.97 186.886C969.811 186.875 969.688 186.986 969.675 187.137C969.632 187.674 965.275 241.26 965.81 266.054C965.812 266.205 965.935 266.324 966.084 266.324Z" fill="black"/>
<path d="M984.066 193.068C984.215 193.068 984.336 192.949 984.34 192.8L984.703 176.784L984.401 176.808C983.844 176.851 970.692 177.928 966.808 182.445C966.709 182.56 966.722 182.732 966.836 182.832C966.951 182.931 967.123 182.918 967.223 182.804C970.644 178.824 982.125 177.574 984.142 177.382L983.794 192.789C983.792 192.94 983.911 193.065 984.062 193.07C984.064 193.068 984.064 193.068 984.066 193.068Z" fill="black"/>
<path d="M1039.64 234.375C1037.96 225.879 1041.63 220.509 1044.37 217.679C1045.32 220.395 1046 223.135 1046.28 225.866C1046.67 229.532 1044.69 234.381 1041.67 239.442C1040.78 238.183 1040.07 236.529 1039.64 234.375Z" fill="#FEC786"/>
<path d="M1017.83 184.602C1017.77 184.602 1017.71 184.576 1017.68 184.529C1015.88 182.132 1012.94 181.158 1012.91 181.148C1012.82 181.115 1012.76 181.012 1012.79 180.912C1012.83 180.815 1012.93 180.761 1013.03 180.793C1013.15 180.835 1016.1 181.81 1017.98 184.304C1018.04 184.386 1018.02 184.503 1017.94 184.565C1017.9 184.591 1017.87 184.602 1017.83 184.602Z" fill="#21111D"/>
<path d="M1017.48 186.325C1017.42 186.325 1017.36 186.299 1017.33 186.252C1015.53 183.855 1012.59 182.881 1012.56 182.87C1012.46 182.838 1012.41 182.734 1012.44 182.635C1012.48 182.538 1012.58 182.484 1012.68 182.516C1012.8 182.557 1015.75 183.533 1017.62 186.027C1017.69 186.109 1017.67 186.226 1017.59 186.288C1017.56 186.314 1017.51 186.325 1017.48 186.325Z" fill="#21111D"/>
<path d="M1009.91 378.85C1010.06 378.85 1010.18 378.729 1010.18 378.58L1010.67 346.369C1010.67 346.218 1010.55 346.093 1010.4 346.09C1010.39 346.09 1010.39 346.09 1010.39 346.09C1010.24 346.09 1010.12 346.211 1010.12 346.36L1009.64 378.571C1009.63 378.722 1009.75 378.847 1009.91 378.85C1009.91 378.85 1009.91 378.85 1009.91 378.85Z" fill="black"/>
<path d="M980.197 378.016C980.342 378.016 980.463 377.904 980.472 377.757L982.277 346.377C982.285 346.226 982.171 346.097 982.017 346.088C981.866 346.073 981.737 346.194 981.728 346.347L979.923 377.727C979.915 377.878 980.029 378.008 980.182 378.016C980.187 378.016 980.191 378.016 980.197 378.016Z" fill="black"/>
<path d="M1039.73 241.82L990.405 241.651L990.636 211.392L1039.96 211.563L1039.73 241.82Z" fill="#8CD2F9"/>
<path d="M1002.76 241.692L990.405 241.651L990.636 211.392L1002.99 211.435L1002.76 241.692Z" fill="#3AA1C9"/>
<path d="M1007.6 218.221L997.788 218.188L997.805 215.889L1007.62 215.921L1007.6 218.221Z" fill="#D7E4F7"/>
<path d="M1007.47 235.709L997.654 235.674L997.672 233.377L1007.49 233.409L1007.47 235.709Z" fill="#D7E4F7"/>
<g opacity="0.5">
<g opacity="0.5">
<g opacity="0.5">
<path opacity="0.5" d="M1037.29 225.691L1019.62 225.628L1019.62 225.136L1037.29 225.197L1037.29 225.691Z" fill="#D7E4F7"/>
</g>
</g>
</g>
<g opacity="0.5">
<g opacity="0.5">
<g opacity="0.5">
<path opacity="0.5" d="M1037.27 227.459L1019.61 227.399L1019.61 226.906L1037.27 226.967L1037.27 227.459Z" fill="#D7E4F7"/>
</g>
</g>
</g>
<path d="M1020.3 242.026C1020.3 242.026 1020.3 242.026 1020.3 242.026L990.131 241.923L990.364 211.392C990.366 211.24 990.487 211.119 990.638 211.119H990.64C990.791 211.122 990.912 211.245 990.912 211.396L990.684 241.379L1020.31 241.48C1020.46 241.48 1020.58 241.603 1020.58 241.754C1020.58 241.903 1020.45 242.026 1020.3 242.026Z" fill="black"/>
<path d="M1039.79 233.794C1039.64 233.792 1039.52 233.669 1039.52 233.517L1039.68 211.832L1008.63 211.726C1008.48 211.726 1008.36 211.603 1008.36 211.452C1008.36 211.301 1008.48 211.18 1008.63 211.18L1040.23 211.288L1040.06 233.522C1040.06 233.673 1039.94 233.794 1039.79 233.794Z" fill="black"/>
<path d="M1016.9 223.886C1016.83 223.886 1016.75 223.856 1016.7 223.797L1014.55 221.435C1014.45 221.323 1014.46 221.15 1014.57 221.049C1014.68 220.947 1014.85 220.956 1014.96 221.066L1017.1 223.428C1017.2 223.541 1017.19 223.713 1017.08 223.815C1017.03 223.864 1016.97 223.886 1016.9 223.886Z" fill="black"/>
<path d="M1016.65 225.848C1016.58 225.848 1016.51 225.823 1016.46 225.769L1014.31 223.61C1014.2 223.502 1014.2 223.329 1014.31 223.223C1014.42 223.117 1014.59 223.117 1014.7 223.223L1016.85 225.382C1016.95 225.49 1016.95 225.663 1016.85 225.769C1016.79 225.823 1016.72 225.848 1016.65 225.848Z" fill="black"/>
<path d="M1003 272.624C999.787 273.052 1001.19 270.895 1001.19 270.895C999.439 270.947 999.169 270.346 999.247 269.837C999.303 269.463 999.552 269.146 999.884 268.971C1000.94 268.414 1004.19 266.721 1006.28 265.782C1007.17 264.597 1004.98 263.314 1003.58 262.975C1002.86 262.801 1002.03 262.103 1003.91 261.611C1005.45 261.209 1008.96 261.656 1008.96 261.656L1013.78 254.916L1021.54 263.306C1021.54 263.306 1015.26 270.321 1014.32 271.383C1013.39 272.447 1009.05 274.967 1007.16 275.23C1003.74 275.705 1004.73 274.395 1004.73 274.395C1001.14 274.555 1003 272.624 1003 272.624Z" fill="#FE9F73"/>
<path d="M1004.56 269.88C1004.61 269.83 1004.62 269.751 1004.59 269.682C1004.55 269.597 1004.44 269.563 1004.36 269.606C1003.18 270.195 1001.16 270.722 1001.14 270.729C1001.05 270.752 1001 270.845 1001.02 270.936C1001.04 271.027 1001.14 271.083 1001.23 271.059C1001.31 271.037 1003.3 270.517 1004.51 269.913C1004.53 269.904 1004.54 269.893 1004.56 269.88Z" fill="#F07162"/>
<path d="M1006.07 271.422C1006.13 271.366 1006.14 271.275 1006.09 271.206C1006.04 271.128 1005.93 271.107 1005.85 271.161C1004.52 272.057 1002.97 272.456 1002.95 272.46C1002.86 272.484 1002.81 272.577 1002.83 272.668C1002.85 272.758 1002.95 272.814 1003.04 272.791C1003.1 272.773 1004.66 272.374 1006.04 271.443C1006.05 271.437 1006.06 271.428 1006.07 271.422Z" fill="#F07162"/>
<path d="M1007.52 273.445C1007.58 273.389 1007.59 273.302 1007.55 273.231C1007.5 273.151 1007.39 273.127 1007.31 273.177C1006.14 273.918 1004.71 274.22 1004.7 274.224C1004.61 274.244 1004.55 274.334 1004.57 274.425C1004.59 274.518 1004.68 274.576 1004.77 274.557C1004.83 274.544 1006.27 274.237 1007.49 273.464C1007.51 273.462 1007.52 273.453 1007.52 273.445Z" fill="#F07162"/>
<path d="M1006.99 177.684C1006.99 177.684 1020.38 176.462 1027.06 187.536C1033.17 197.653 1044.82 211.869 1046.28 225.866C1047.46 237.179 1026.23 259.733 1020.69 265.124L1010.87 254.657C1010.87 254.657 1026.5 229.871 1027.72 226.814C1028.82 224.033 1005.96 193.873 1005.96 193.873L1006.99 177.684Z" fill="#4C222E"/>
<path d="M1020.45 264.871L1018.34 267.227C1018.34 267.227 1010.48 260.445 1009.91 259.551C1010.05 259.415 1012.28 256.153 1012.28 256.153L1020.45 264.871Z" fill="#E2F2F1"/>
<path d="M1039.64 207.665C1039.69 207.665 1039.74 207.65 1039.79 207.622C1039.92 207.54 1039.96 207.369 1039.87 207.242L1025.14 184.447C1017.6 176.387 1008.37 177.456 1008.28 177.469C1008.13 177.488 1008.02 177.624 1008.04 177.775C1008.06 177.924 1008.2 178.03 1008.35 178.013C1008.44 178.002 1017.38 176.976 1024.72 184.805L1039.41 207.542C1039.46 207.62 1039.55 207.665 1039.64 207.665Z" fill="black"/>
<path d="M1033.06 228.8C1033.21 228.8 1033.33 228.677 1033.33 228.526C1033.33 228.375 1033.21 228.252 1033.06 228.252C1031.39 228.252 1028.52 226.6 1027.96 226.263C1027.05 222.552 1014.19 204.424 1013.63 203.645C1013.54 203.522 1013.37 203.492 1013.25 203.58C1013.13 203.669 1013.1 203.839 1013.19 203.962C1013.32 204.154 1026.83 223.195 1027.45 226.485L1027.47 226.604L1027.57 226.669C1027.71 226.757 1031.05 228.8 1033.06 228.8Z" fill="black"/>
<path d="M1020.69 265.398C1020.75 265.398 1020.82 265.376 1020.87 265.331C1020.98 265.232 1020.99 265.059 1020.89 264.944C1018.66 262.375 1012.28 255.732 1011.22 254.624C1016.68 246.236 1027.99 226.98 1027.99 226.438C1027.99 226.287 1027.87 226.164 1027.72 226.164C1027.58 226.164 1027.47 226.259 1027.45 226.384C1027.13 227.232 1016.53 245.496 1010.65 254.508L1010.53 254.691L1010.68 254.849C1010.75 254.927 1018.06 262.524 1020.49 265.307C1020.54 265.366 1020.61 265.398 1020.69 265.398Z" fill="black"/>
<path d="M1035.35 391.325H1039.06L1032.37 297.032H1024.94L1035.35 391.325Z" fill="#FEC786"/>
<path d="M877.266 391.325H873.553L880.252 297.032H887.678L877.266 391.325Z" fill="#FEC786"/>
<path d="M855.327 284.762C855.389 284.16 854.947 283.618 854.349 283.517L850.631 282.88C850.515 282.86 850.424 282.768 850.404 282.651C850.376 282.478 850.512 282.325 850.687 282.331L856.255 282.537C856.892 282.56 857.332 282.064 857.231 281.433C857.129 280.803 856.525 280.267 855.886 280.244L850.208 280.034C850.076 280.03 849.966 279.933 849.945 279.801L849.93 279.708C849.906 279.557 850.007 279.415 850.158 279.391L856.38 278.391C856.978 278.294 857.43 277.759 857.371 277.156C857.309 276.496 856.702 276.034 856.056 276.137L849.796 277.143C849.645 277.167 849.502 277.066 849.478 276.914L849.431 276.621C849.409 276.485 849.491 276.351 849.625 276.312L855.271 274.628C855.851 274.455 856.229 273.866 856.093 273.274C855.944 272.627 855.284 272.249 854.657 272.434C854.657 272.434 845.91 274.539 844.517 274.755L845.914 271.776C846.283 271.266 846.169 270.554 845.659 270.187C845.15 269.818 844.437 269.932 844.07 270.442L839.114 275.841C838.874 276.174 839.001 276.983 839.26 277.612C839.817 284.307 839.958 285.332 840.275 287.124L847.322 285.747C849.355 285.35 851.443 285.326 853.485 285.676L853.999 285.764C854.645 285.877 855.255 285.423 855.327 284.762Z" fill="#FE9F73"/>
<path d="M815.228 275.915L840.386 272.277C840.386 272.277 843.926 283.251 843.194 289.357C843.194 289.357 819.82 295.668 814.917 295.044C810.014 294.42 805.016 287.403 805.016 287.403C805.016 287.403 804.239 250.833 804.971 251.399C805.705 251.962 815.228 275.915 815.228 275.915Z" fill="#EF3A4C"/>
<path d="M861.788 386.451L842.842 384.912L842.648 380.929L842.462 366.88L862.026 368.866L861.788 386.451Z" fill="#FE9F73"/>
<path d="M810.683 287.58C810.683 287.58 851.551 292.708 857.264 300.031C860.081 303.643 865.819 352.086 863.438 372.239C863.438 372.239 848.84 373.242 841.858 371.552L840.159 322.414L808.777 312.923L792.665 288.167L810.683 287.58Z" fill="#258D8C"/>
<path d="M851.857 372.793C845.931 372.793 841.838 371.822 841.797 371.811L841.598 371.764L839.88 322.077L842.073 323.843L841.737 324.26L840.454 323.228L842.119 371.334C843.028 371.53 846.983 372.312 852.376 372.254L852.38 372.789C852.205 372.793 852.03 372.793 851.857 372.793Z" fill="#21111D"/>
<path d="M848.441 391.325L874.311 391.318C874.544 391.281 874.736 391.24 874.874 391.195C876.534 390.666 876.673 389.697 876.595 389.135C876.56 388.887 876.416 388.667 876.202 388.529L861.91 379.275L857.189 381.365C855.686 382.034 854.084 382.459 852.443 382.617C849.093 382.939 843.717 383.114 842.648 381.032L842.817 389.021C842.819 389.019 842.037 391.387 848.441 391.325Z" fill="#EF3A4C"/>
<path d="M807.326 387.486H791.523V333.423H788.013V387.486H772.62C770.472 387.486 768.729 389.228 768.729 391.374H788.013H791.523H811.214C811.214 389.228 809.474 387.486 807.326 387.486Z" fill="#4C222E"/>
<path d="M744.066 249.766H780.388L799.602 333.423L757.98 329.083L744.066 249.766Z" fill="#FEC786"/>
<path d="M827.264 324.901C827.264 324.901 779.53 324.901 765.286 324.901C762.987 324.901 761.016 323.26 760.599 321L747.933 252.426C747.592 250.585 745.791 249.38 743.948 249.79C742.19 250.179 741.094 251.941 741.42 253.711L755.768 331.396C755.88 331.998 756.147 332.529 756.523 332.961C757.447 334.675 759.258 335.843 761.342 335.843H827.264C830.284 335.843 832.734 333.395 832.734 330.372C832.734 327.352 830.284 324.901 827.264 324.901Z" fill="#F99247"/>
<path d="M765.286 325.169C762.859 325.169 760.778 323.438 760.336 321.05L747.669 252.476C747.518 251.653 747.05 250.947 746.352 250.485C745.655 250.023 744.822 249.87 744.004 250.051C743.861 250.084 743.716 249.993 743.686 249.849C743.654 249.704 743.745 249.561 743.889 249.531C744.85 249.317 745.83 249.499 746.648 250.041C747.466 250.583 748.017 251.414 748.194 252.379L760.86 320.952C761.255 323.086 763.116 324.636 765.286 324.636C765.433 324.636 765.554 324.755 765.554 324.904C765.551 325.05 765.433 325.169 765.286 325.169Z" fill="#21111D"/>
<path d="M811.227 325.424C811.227 325.424 795.565 325.681 784.587 325.305C781.063 325.184 777.926 325.433 776.07 325.02C768.429 323.323 766.547 299.472 775.223 284.857C783.9 270.243 814.256 315.112 814.256 315.112L811.227 325.424Z" fill="#7FC6A6"/>
<path d="M839.422 386.717L823.265 385.847C821.516 385.752 820.133 384.329 820.089 382.578L819.694 366.67L839.26 368.657L839.422 386.717Z" fill="#FE9F73"/>
<path d="M798.089 292.708C798.089 292.708 840.055 297.684 841.165 302.128C842.275 306.571 844.665 352.194 842.283 372.347C842.283 372.347 826.586 373.245 819.604 371.554L817.724 325.201L810.954 325.437L794.535 296.551L798.089 292.708Z" fill="#7FC6A6"/>
<path d="M829.023 372.893C822.087 372.893 819.615 371.848 819.496 371.796L819.343 371.729L817.521 325.102L820.388 326.454L820.159 326.937L818.09 325.961L819.863 371.36C820.612 371.619 824.211 372.657 832.706 372.264L832.73 372.8C831.374 372.865 830.141 372.893 829.023 372.893Z" fill="#21111D"/>
<path d="M822.518 362.838C821.778 359.982 821.566 332.13 821.558 330.947L822.093 330.942C822.095 331.232 822.313 359.913 823.036 362.704L822.518 362.838Z" fill="#21111D"/>
<path d="M799.442 325.923C792.607 325.923 784.414 325.692 775.202 324.999L775.243 324.467C802.687 326.536 821.094 324.489 821.275 324.467L821.336 324.996C821.215 325.012 813.011 325.923 799.442 325.923Z" fill="#21111D"/>
<path d="M825.866 391.325L851.736 391.318C851.969 391.281 852.162 391.24 852.3 391.195C853.96 390.666 854.098 389.697 854.02 389.135C853.986 388.887 853.841 388.667 853.628 388.529L839.336 379.275L834.614 381.365C833.112 382.034 831.51 382.459 829.869 382.617C826.518 382.939 821.091 383.111 820.024 381.03L820.242 389.019C820.242 389.019 819.461 391.387 825.866 391.325Z" fill="#FF424D"/>
<path d="M781.892 309.585C781.892 309.585 791.806 304.863 801.024 297.905C810.243 290.948 815.811 286.552 815.811 286.552C815.811 286.552 814.528 283.72 813.293 281.349L811.124 277.178L805.821 254.033C805.821 254.033 804.163 242.901 789.153 240.252C789.727 240.517 787.926 240.044 787.926 240.044C787.926 240.044 774.334 240.537 769.185 241.249C761.18 242.357 760.359 263.047 760.359 263.047C760.357 276.787 761.983 295.594 766.758 301.72C772.825 309.501 779.82 309.749 781.901 309.63C781.894 309.6 781.892 309.585 781.892 309.585Z" fill="#EF3A4C"/>
<path d="M777.957 239.615C777.957 239.615 768.894 239.297 764.567 241.748C758.11 245.405 760.411 266.354 760.411 266.354C760.411 266.354 765.897 263.362 766.23 262.364C766.562 261.367 777.957 239.615 777.957 239.615Z" fill="#EF3A4C"/>
<path d="M775.631 308.829C776.216 309.052 776.769 309.222 777.276 309.358C780.329 310.168 782.462 309.831 782.55 309.816C782.686 309.795 782.777 309.665 782.755 309.529C782.734 309.393 782.604 309.302 782.468 309.324C782.447 309.328 780.331 309.659 777.375 308.868C774.649 308.141 770.627 306.282 766.95 301.564C762.332 295.642 760.646 277.409 760.605 263.595C760.605 263.457 760.493 263.345 760.355 263.347C760.217 263.347 760.106 263.459 760.106 263.597C760.147 277.491 761.862 295.851 766.557 301.873C769.649 305.835 772.984 307.828 775.631 308.829Z" fill="#21111D"/>
<path d="M783.043 286.017C783.088 286.034 783.138 286.039 783.188 286.026C783.322 285.993 783.406 285.859 783.373 285.725C783.332 285.548 779.205 268.004 777.449 256.965C777.428 256.829 777.298 256.736 777.164 256.757C777.028 256.779 776.936 256.906 776.957 257.042C778.717 268.101 782.847 285.665 782.89 285.84C782.909 285.926 782.97 285.989 783.043 286.017Z" fill="#21111D"/>
<path d="M783.106 249.471C783.298 249.49 783.494 249.507 783.695 249.522C783.809 249.531 783.909 249.445 783.915 249.33C783.924 249.216 783.842 249.119 783.723 249.11C775.135 248.508 773.54 242.218 773.527 242.156C773.505 242.046 773.399 241.968 773.289 241.987C773.179 242.007 773.101 242.106 773.119 242.218C773.129 242.281 774.714 248.603 783.106 249.471Z" fill="#21111D"/>
<path d="M789.012 336.154L763.155 336.109C756.191 336.737 755.362 330.776 755.321 330.45L753.784 322.127C753.758 321.982 753.853 321.842 753.997 321.816C754.142 321.79 754.282 321.885 754.308 322.03L755.85 330.383C755.873 330.621 756.517 336.18 763.119 335.578L763.142 335.576L789.01 335.621C789.157 335.621 789.276 335.742 789.276 335.889C789.278 336.036 789.159 336.154 789.012 336.154Z" fill="#21111D"/>
<path d="M758.06 250.032L745.349 250.013C745.202 250.013 745.083 249.892 745.083 249.745C745.083 249.598 745.202 249.479 745.351 249.479L758.06 249.499C758.207 249.499 758.326 249.617 758.326 249.766C758.326 249.913 758.207 250.032 758.06 250.032Z" fill="#21111D"/>
<path d="M804.995 274.805C803.311 269.129 801.493 262.695 800.861 259.372C800.835 259.236 800.703 259.148 800.569 259.173C800.433 259.199 800.345 259.329 800.371 259.465C801.01 262.82 802.847 269.317 804.54 275.025C804.693 274.952 804.846 274.878 804.995 274.805Z" fill="#21111D"/>
<path d="M800.284 298.639C800.213 298.639 800.144 298.604 800.1 298.542C800.034 298.44 800.059 298.304 800.161 298.237C803.032 296.322 814.258 287.496 815.552 286.477C813.781 281.189 808.79 274.678 807.985 273.648L783.699 285.864L780.491 288.198C780.394 288.269 780.256 288.247 780.185 288.15C780.113 288.053 780.135 287.915 780.232 287.843L783.486 285.481L808.106 273.097L808.218 273.235C808.276 273.309 814.125 280.658 816.018 286.49L816.065 286.637L815.945 286.732C815.819 286.831 803.451 296.575 800.405 298.606C800.368 298.628 800.327 298.639 800.284 298.639Z" fill="#21111D"/>
<path d="M842.849 284.43C842.725 284.43 842.62 284.335 842.609 284.21C842.166 279.261 840.575 273.717 840.247 272.614L815.072 276.126L810.599 265.057C806.404 253.163 802.913 248.27 802.879 248.223C797.309 241.124 788 240.293 787.905 240.284C787.771 240.273 787.674 240.157 787.684 240.023C787.695 239.889 787.812 239.789 787.946 239.802C788.041 239.811 797.561 240.662 803.265 247.931C803.306 247.987 806.832 252.923 811.05 264.886L815.379 275.595L840.59 272.076L840.651 272.272C840.67 272.335 842.596 278.614 843.09 284.164C843.101 284.298 843.004 284.415 842.872 284.426C842.864 284.43 842.857 284.43 842.849 284.43Z" fill="#21111D"/>
<path d="M789.975 221.338L790.256 232.192C790.256 232.192 790.491 235.677 787.451 236.193L788.142 240.832C788.399 242.557 787.408 244.241 785.759 244.809C784.954 245.088 783.989 245.302 782.888 245.33C779.399 245.42 777.441 242.853 777.117 241.551C776.793 240.249 777.503 233.977 777.503 233.977L777.318 230.909L777.406 218.998L789.975 221.338Z" fill="#FE9F73"/>
<path d="M780.299 233.412C780.299 233.412 780.655 239.245 787.963 239.615L787.453 236.193C787.451 236.193 782.747 237.266 780.299 233.412Z" fill="#F07162"/>
<path d="M781.701 227.25C781.664 227.25 781.627 227.239 781.599 227.211C781.541 227.157 781.537 227.064 781.591 227.006C781.61 226.984 783.557 224.888 785.423 226.313C785.487 226.362 785.498 226.453 785.451 226.516C785.401 226.58 785.31 226.591 785.248 226.544C783.594 225.281 781.88 227.122 781.809 227.202C781.776 227.232 781.74 227.248 781.701 227.25Z" fill="black"/>
<path d="M776.65 225.853L779.805 226.425L780.387 226.997C780.387 226.997 779.979 221.744 779.362 220.725C778.745 219.708 776.65 225.853 776.65 225.853Z" fill="black"/>
<path d="M787.67 226.222C787.629 226.222 787.588 226.207 787.557 226.175C787.503 226.116 787.508 226.023 787.566 225.969C787.624 225.918 788.98 224.696 789.876 225.423C789.939 225.473 789.947 225.566 789.898 225.628C789.848 225.691 789.755 225.7 789.693 225.65C788.991 225.08 787.775 226.172 787.763 226.185C787.739 226.207 787.704 226.22 787.67 226.222Z" fill="black"/>
<path d="M784.656 227.759C784.662 228.001 784.472 228.2 784.23 228.206C783.988 228.213 783.79 228.023 783.783 227.781C783.777 227.539 783.967 227.34 784.209 227.334C784.448 227.33 784.649 227.52 784.656 227.759Z" fill="black"/>
<path d="M789.28 227.204C789.286 227.446 789.096 227.645 788.854 227.651C788.612 227.658 788.414 227.468 788.407 227.226C788.401 226.984 788.591 226.786 788.833 226.779C789.072 226.773 789.273 226.963 789.28 227.204Z" fill="black"/>
<path d="M780.257 229.642C781.288 228.629 781.303 226.973 780.29 225.942C779.277 224.911 777.621 224.896 776.59 225.909C775.559 226.922 775.545 228.579 776.557 229.609C777.57 230.64 779.227 230.655 780.257 229.642Z" fill="#FE9F73"/>
<path d="M778.013 229.234C777.469 229.249 777.095 228.85 776.966 228.444C776.812 227.964 776.961 227.492 777.348 227.237C777.918 226.861 778.449 227.079 778.723 227.25C778.602 226.956 778.419 226.745 778.179 226.619C777.656 226.349 777.022 226.572 777.015 226.574C776.979 226.587 776.935 226.567 776.922 226.531C776.91 226.494 776.929 226.451 776.966 226.438C776.994 226.427 777.665 226.192 778.244 226.49C778.578 226.662 778.812 226.978 778.937 227.427L779.006 227.677L778.816 227.498C778.79 227.472 778.151 226.883 777.428 227.36C777.026 227.623 777.002 228.085 777.104 228.401C777.21 228.729 777.51 229.102 778.008 229.089C778.013 229.089 778.017 229.089 778.024 229.089C778.062 229.089 778.097 229.119 778.099 229.158C778.101 229.199 778.069 229.232 778.03 229.234C778.024 229.234 778.017 229.234 778.013 229.234Z" fill="#F07162"/>
<path d="M786.271 230.661C786.24 230.661 786.21 230.644 786.199 230.614C786.186 230.575 786.206 230.534 786.243 230.521L787.687 230L787.138 226.583C787.132 226.544 787.16 226.505 787.199 226.498C787.24 226.492 787.277 226.52 787.283 226.559L787.851 230.095L786.292 230.657C786.286 230.661 786.277 230.661 786.271 230.661Z" fill="#F07162"/>
<path d="M785.179 232.108C785.224 232.097 788.054 231.959 788.054 231.959C788.054 231.959 787.728 233.14 786.677 233.194C785.626 233.248 785.179 232.108 785.179 232.108Z" fill="#FBFDFC"/>
<path d="M776.651 225.853C776.651 225.853 775.636 220.781 777.146 218.84C778.657 216.901 787.523 213.345 788.633 214.265C789.743 215.187 788.687 216.368 788.687 216.368C788.687 216.368 792.251 215.122 793.149 218.29C794.047 221.457 786.349 223.014 781.699 221.641C781.699 221.643 778.672 222.61 776.651 225.853Z" fill="black"/>
<path d="M820.131 279.302L826.424 278.965C827.029 278.933 827.534 278.447 827.54 277.841C827.547 277.176 826.994 276.653 826.342 276.69L820.01 277.029C819.857 277.037 819.727 276.921 819.719 276.768L819.704 276.472C819.697 276.334 819.792 276.211 819.928 276.185L825.721 275.107C826.316 274.997 826.752 274.451 826.681 273.849C826.601 273.188 825.986 272.743 825.343 272.862C825.343 272.862 816.422 274.03 815.012 274.099L816.718 271.284C817.139 270.815 817.1 270.096 816.632 269.675C816.163 269.254 815.444 269.293 815.023 269.761L809.525 274.609C809.477 274.66 809.44 274.729 809.41 274.809C811.081 277.089 814.088 281.466 815.632 285.415L816.638 285.326C818.702 285.145 820.781 285.343 822.776 285.907L823.277 286.049C823.905 286.226 824.561 285.84 824.699 285.19C824.827 284.596 824.442 284.013 823.857 283.847L820.228 282.819C820.114 282.787 820.034 282.686 820.028 282.569C820.019 282.394 820.17 282.256 820.343 282.28L825.857 283.072C826.489 283.163 826.977 282.716 826.942 282.079C826.908 281.442 826.364 280.846 825.731 280.755L820.107 279.946C819.978 279.926 819.879 279.818 819.87 279.687L819.866 279.594C819.861 279.44 819.98 279.309 820.131 279.302Z" fill="#FE9F73"/>
<path d="M835.614 391.325H831.9L838.599 297.032H846.026L835.614 391.325Z" fill="#FEC786"/>
<path d="M896.106 266.888H864.278L853.179 295.156H885.005L896.106 266.888Z" fill="#4CB7D8"/>
<path d="M853.179 295.156H854.839L865.938 266.888H864.278L853.179 295.156Z" fill="#3AA1C9"/>
<path d="M875.297 280.123C874.856 281.42 875.178 282.705 876.018 282.99C876.858 283.275 877.896 282.454 878.339 281.155C878.779 279.857 878.457 278.573 877.618 278.288C876.778 278.003 875.739 278.823 875.297 280.123Z" fill="#E2F2F1"/>
<path d="M842.656 292.874H854.547V295.156H842.656C842.025 295.156 841.514 294.644 841.514 294.014C841.514 293.386 842.025 292.874 842.656 292.874Z" fill="#3AA1C9"/>
<path d="M845.667 294.016H853.178V293.658H845.667V294.016Z" fill="#4CB7D8"/>
<path d="M833.947 276.575V278.808C830.037 278.808 826.857 281.988 826.857 285.898C826.857 289.806 830.037 292.986 833.947 292.986V293.874C833.947 294.582 834.521 295.154 835.227 295.154H845.096C845.804 295.154 846.376 294.58 846.376 293.874V276.573H833.947V276.575ZM828.606 285.9C828.606 282.955 831.002 280.559 833.947 280.559V291.242C831.002 291.24 828.606 288.845 828.606 285.9Z" fill="#FEBAC7"/>
<path d="M839.376 285.766L839.082 285.943L840.915 289L841.21 288.823L839.376 285.766Z" fill="#49263E"/>
<path d="M841.454 286.346L841.156 286.518L842.888 289.524L843.185 289.352L841.454 286.346Z" fill="#49263E"/>
<path d="M980.78 276.575V293.876C980.78 294.584 981.355 295.156 982.06 295.156H991.929C992.637 295.156 993.209 294.582 993.209 293.876V292.988C997.119 292.988 1000.3 289.808 1000.3 285.9C1000.3 281.99 997.119 278.81 993.209 278.81V276.578H980.78V276.575ZM993.211 291.24V280.557C996.156 280.557 998.552 282.953 998.552 285.898C998.552 288.845 996.156 291.24 993.211 291.24Z" fill="#FECC86"/>
<path d="M987.8 285.791L985.966 288.848L986.26 289.024L988.094 285.968L987.8 285.791Z" fill="#49263E"/>
<path d="M985.691 286.36L983.959 289.366L984.256 289.538L985.989 286.532L985.691 286.36Z" fill="#49263E"/>
<path d="M1046.58 263.109C1046.67 262.509 1047.24 262.101 1047.84 262.155L1051.6 262.49C1051.72 262.501 1051.83 262.434 1051.88 262.326C1051.95 262.166 1051.86 261.982 1051.69 261.944L1046.25 260.717C1045.63 260.577 1045.33 259.985 1045.59 259.4C1045.85 258.817 1046.57 258.454 1047.2 258.595L1052.74 259.845C1052.87 259.873 1053 259.808 1053.05 259.687L1053.09 259.601C1053.15 259.461 1053.09 259.299 1052.95 259.236L1047.19 256.678C1046.64 256.431 1046.34 255.799 1046.55 255.229C1046.78 254.605 1047.48 254.316 1048.08 254.581L1053.87 257.155C1054.01 257.217 1054.18 257.155 1054.24 257.014L1054.36 256.745C1054.42 256.617 1054.37 256.468 1054.25 256.397L1049.22 253.325C1048.71 253.009 1048.49 252.342 1048.77 251.805C1049.08 251.217 1049.82 251.021 1050.38 251.36C1050.38 251.36 1058.29 255.633 1059.59 256.198L1059 252.96C1058.77 252.372 1059.06 251.714 1059.65 251.489C1060.24 251.263 1060.9 251.556 1061.12 252.144L1064.53 258.632C1064.68 259.014 1064.35 259.765 1063.94 260.305C1061.68 266.635 1061.29 267.592 1060.52 269.241L1054.06 266.106C1052.2 265.202 1050.18 264.644 1048.12 264.459L1047.6 264.413C1046.95 264.362 1046.48 263.766 1046.58 263.109Z" fill="#FE9F73"/>
<path d="M1065.32 257.552L1091.86 280.168L1088.83 295.169L1081.27 294.048L1055.84 268.323C1055.85 268.323 1059.02 260.408 1065.32 257.552Z" fill="#FD7583"/>
<path d="M1087.39 276.601C1087.33 276.601 1087.28 276.582 1087.23 276.543L1065.28 257.835C1060.56 260.117 1057.75 265.178 1057.72 265.23C1057.66 265.346 1057.51 265.389 1057.39 265.325C1057.28 265.26 1057.23 265.113 1057.3 264.996C1057.33 264.942 1060.27 259.646 1065.22 257.33L1065.36 257.263L1087.55 276.172C1087.65 276.258 1087.66 276.411 1087.58 276.513C1087.53 276.573 1087.46 276.601 1087.39 276.601Z" fill="#21111D"/>
<path d="M1096.68 219.576C1096.68 219.576 1094.5 214.861 1099.86 210.789C1105.21 206.717 1106.22 213.458 1108.33 214.049C1110.45 214.641 1114.23 213.818 1115.71 217.726C1117.18 221.634 1116.11 224.795 1117.73 226.425C1120.43 229.148 1127.09 235.066 1122.96 245.902C1120.24 253.016 1111.3 261.337 1111.3 261.337C1111.3 261.337 1089.3 247.268 1087.3 239.958C1085.31 232.647 1088 229.439 1091.54 226.919C1093.72 225.367 1098.13 224.05 1096.68 219.576Z" fill="#4C222E"/>
<path d="M1099.63 221.835C1099.63 221.835 1097.38 231.896 1098.93 234.275C1098.93 234.275 1099.67 235.536 1101.67 235.717L1101.21 242.082L1110.2 242.732L1111.71 221.85L1099.63 221.835Z" fill="#FE9F73"/>
<path d="M1101.99 230.033C1102.03 230.035 1102.06 230.011 1102.07 229.974C1102.09 229.931 1102.06 229.886 1102.02 229.873C1101.5 229.722 1101.21 229.048 1101.13 228.83C1101.91 228.485 1102.4 227.999 1102.6 227.384C1102.92 226.382 1102.35 225.41 1102.32 225.371C1102.3 225.333 1102.25 225.32 1102.21 225.343C1102.17 225.367 1102.16 225.417 1102.18 225.456C1102.19 225.464 1102.75 226.403 1102.45 227.334C1102.26 227.919 1101.77 228.383 1101 228.709L1100.93 228.737L1100.95 228.809C1100.97 228.85 1101.27 229.826 1101.97 230.031C1101.98 230.033 1101.98 230.033 1101.99 230.033Z" fill="#F07162"/>
<path d="M1101.49 238.278L1101.68 235.717C1101.68 235.717 1106.02 235.776 1108.8 234.295C1108.8 234.295 1104.94 237.499 1101.49 238.278Z" fill="#F07162"/>
<path d="M1107.32 226.082C1107.36 226.084 1107.4 226.073 1107.43 226.045C1107.5 225.987 1107.51 225.883 1107.45 225.814C1107.43 225.79 1105.49 223.493 1103.46 224.901C1103.39 224.953 1103.37 225.054 1103.42 225.13C1103.47 225.203 1103.57 225.222 1103.65 225.171C1105.43 223.938 1107.13 225.939 1107.2 226.023C1107.23 226.058 1107.27 226.08 1107.32 226.082Z" fill="#4C222E"/>
<path d="M1101.65 225.313C1101.7 225.317 1101.74 225.3 1101.78 225.266C1101.84 225.201 1101.84 225.097 1101.78 225.035C1101.72 224.976 1100.35 223.625 1099.37 224.35C1099.3 224.404 1099.29 224.508 1099.34 224.579C1099.39 224.652 1099.5 224.667 1099.57 224.614C1100.32 224.056 1101.54 225.253 1101.55 225.266C1101.58 225.294 1101.62 225.311 1101.65 225.313Z" fill="#4C222E"/>
<path d="M1099.69 226.447C1099.67 226.699 1099.86 226.917 1100.11 226.935C1100.36 226.952 1100.58 226.764 1100.6 226.511C1100.62 226.259 1100.43 226.041 1100.18 226.023C1099.93 226.006 1099.71 226.194 1099.69 226.447Z" fill="black"/>
<path d="M1104.74 227.194C1104.99 227.149 1105.15 226.911 1105.11 226.662C1105.06 226.414 1104.82 226.248 1104.57 226.293C1104.32 226.338 1104.16 226.576 1104.2 226.825C1104.25 227.074 1104.49 227.239 1104.74 227.194Z" fill="black"/>
<path d="M1114.28 230.354C1114.86 229.064 1114.29 227.546 1113 226.962C1111.71 226.379 1110.19 226.951 1109.61 228.241C1109.03 229.53 1109.6 231.049 1110.89 231.632C1112.18 232.216 1113.7 231.643 1114.28 230.354Z" fill="#FE9F73"/>
<path d="M1112.01 230.886C1112.55 230.924 1112.94 230.547 1113.08 230.154C1113.26 229.687 1113.13 229.212 1112.76 228.945C1112.24 228.562 1111.72 228.727 1111.43 228.878C1111.56 228.614 1111.75 228.426 1111.98 228.321C1112.5 228.083 1113.1 228.327 1113.11 228.329C1113.15 228.347 1113.2 228.327 1113.21 228.284C1113.23 228.243 1113.21 228.193 1113.17 228.176C1113.14 228.165 1112.49 227.9 1111.91 228.169C1111.57 228.325 1111.32 228.625 1111.18 229.059L1111.09 229.338L1111.31 229.145C1111.34 229.122 1111.98 228.58 1112.66 229.072C1113.04 229.344 1113.04 229.791 1112.93 230.091C1112.81 230.406 1112.5 230.758 1112.01 230.717C1111.97 230.713 1111.93 230.747 1111.92 230.793C1111.92 230.838 1111.95 230.877 1112 230.881C1112 230.883 1112.01 230.883 1112.01 230.886Z" fill="#F07162"/>
<path d="M1099.63 221.835C1099.63 221.835 1100.69 217.957 1105.99 217.905C1111.28 217.854 1111.7 221.85 1111.7 221.85L1105.61 222.634L1100.02 221.835H1099.63Z" fill="#FE9F73"/>
<path d="M1099.87 218.503C1099.87 218.503 1102.91 221.945 1107.22 221.526C1107.22 221.526 1108.26 226.818 1111.35 226.801C1114.44 226.783 1113.29 219.475 1113.29 219.475C1113.29 219.475 1107.71 216.718 1107.34 216.692C1106.98 216.666 1100.91 215.861 1100.91 215.861L1099.87 218.503Z" fill="#4C222E"/>
<path d="M1101.1 231.108C1101.15 231.093 1104.2 230.704 1104.2 230.704C1104.2 230.704 1103.95 232.011 1102.81 232.159C1101.68 232.306 1101.1 231.108 1101.1 231.108Z" fill="#FBFDFC"/>
<path d="M1094.86 387.486H1110.67V333.423H1114.18V387.486H1129.57C1131.72 387.486 1133.46 389.228 1133.46 391.374H1114.18H1110.67H1090.97C1090.97 389.228 1092.71 387.486 1094.86 387.486Z" fill="#4C222E"/>
<path d="M1158.12 249.766H1121.8L1102.59 333.423L1144.21 329.083L1158.12 249.766Z" fill="#FEC786"/>
<path d="M1074.92 324.902C1074.92 324.902 1122.66 324.902 1136.9 324.902C1139.2 324.902 1141.17 323.261 1141.59 321.001L1154.26 252.427C1154.6 250.585 1156.4 249.381 1158.24 249.791C1160 250.179 1161.09 251.941 1160.77 253.712L1146.42 331.396C1146.31 331.999 1146.04 332.53 1145.67 332.962C1144.74 334.676 1142.93 335.844 1140.85 335.844H1074.92C1071.9 335.844 1069.45 333.396 1069.45 330.373C1069.46 327.353 1071.9 324.902 1074.92 324.902Z" fill="#F99247"/>
<path d="M1136.9 325.169C1139.33 325.169 1141.41 323.438 1141.85 321.05L1154.52 252.476C1154.67 251.653 1155.14 250.947 1155.84 250.485C1156.53 250.023 1157.37 249.87 1158.18 250.051C1158.33 250.084 1158.47 249.993 1158.5 249.849C1158.53 249.704 1158.44 249.561 1158.3 249.531C1157.34 249.317 1156.36 249.499 1155.54 250.041C1154.72 250.583 1154.17 251.414 1153.99 252.379L1141.33 320.953C1140.93 323.086 1139.07 324.636 1136.9 324.636C1136.76 324.636 1136.63 324.755 1136.63 324.904C1136.64 325.05 1136.76 325.169 1136.9 325.169Z" fill="#21111D"/>
<path d="M1144.13 250.032C1144.13 250.032 1144.13 250.032 1144.13 250.032L1156.84 250.013C1156.99 250.013 1157.1 249.892 1157.1 249.745C1157.1 249.598 1156.99 249.479 1156.84 249.479L1144.13 249.499C1143.98 249.499 1143.86 249.618 1143.86 249.767C1143.86 249.913 1143.98 250.032 1144.13 250.032Z" fill="#21111D"/>
<path d="M1040.4 386.452L1059.35 384.912L1059.54 380.929L1059.73 366.88L1040.16 368.866L1040.4 386.452Z" fill="#FE9F73"/>
<path d="M1091.51 287.58C1091.51 287.58 1050.64 292.708 1044.93 300.031C1042.11 303.643 1036.37 352.086 1038.75 372.239C1038.75 372.239 1053.35 373.242 1060.33 371.552L1062.03 322.414L1093.41 312.923L1109.52 288.167L1091.51 287.58Z" fill="#3AA1C9"/>
<path d="M1050.33 372.794C1056.26 372.794 1060.35 371.822 1060.39 371.811L1060.59 371.764L1062.31 322.077L1060.12 323.843L1060.45 324.26L1061.73 323.228L1060.07 371.334C1059.16 371.53 1055.21 372.312 1049.81 372.254L1049.81 372.789C1049.98 372.794 1050.16 372.794 1050.33 372.794Z" fill="#21111D"/>
<path d="M1053.75 391.325L1027.88 391.318C1027.65 391.281 1027.45 391.24 1027.32 391.195C1025.66 390.666 1025.52 389.697 1025.59 389.135C1025.63 388.887 1025.77 388.667 1025.99 388.529L1040.28 379.275L1045 381.365C1046.5 382.034 1048.11 382.46 1049.75 382.617C1053.1 382.939 1058.47 383.114 1059.54 381.032L1059.37 389.021C1059.37 389.019 1060.15 391.387 1053.75 391.325Z" fill="#CE1D37"/>
<path d="M1090.96 325.424C1090.96 325.424 1106.62 325.681 1117.6 325.305C1121.13 325.184 1124.26 325.433 1126.12 325.02C1133.76 323.323 1135.64 299.472 1126.97 284.857C1118.29 270.243 1087.93 315.112 1087.93 315.112L1090.96 325.424Z" fill="#4CB7D8"/>
<path d="M1062.77 386.717L1078.92 385.847C1080.67 385.752 1082.06 384.329 1082.1 382.578L1082.49 366.67L1062.93 368.657L1062.77 386.717Z" fill="#FE9F73"/>
<path d="M1104.1 292.708C1104.1 292.708 1062.14 297.684 1061.03 302.128C1059.92 306.571 1057.53 352.194 1059.91 372.347C1059.91 372.347 1075.61 373.245 1082.59 371.554L1084.47 325.202L1091.24 325.437L1107.66 296.551L1104.1 292.708Z" fill="#4CB7D8"/>
<path d="M1073.17 372.893C1080.1 372.893 1082.57 371.848 1082.69 371.796L1082.85 371.729L1084.67 325.102L1081.8 326.454L1082.03 326.937L1084.1 325.962L1082.33 371.36C1081.58 371.619 1077.98 372.657 1069.48 372.264L1069.46 372.8C1070.81 372.865 1072.05 372.893 1073.17 372.893Z" fill="#21111D"/>
<path d="M1081.15 362.467C1081.89 359.61 1080.62 332.13 1080.63 330.947L1080.1 330.942C1080.09 331.232 1081.35 359.541 1080.63 362.333L1081.15 362.467Z" fill="#21111D"/>
<path d="M1102.75 325.923C1109.58 325.923 1117.77 325.692 1126.99 324.999L1126.95 324.467C1099.5 326.536 1081.1 324.489 1080.91 324.467L1080.85 324.996C1080.97 325.012 1089.18 325.923 1102.75 325.923Z" fill="#21111D"/>
<path d="M1076.32 391.325L1050.45 391.318C1050.22 391.281 1050.03 391.24 1049.89 391.195C1048.23 390.666 1048.09 389.697 1048.17 389.135C1048.2 388.887 1048.35 388.667 1048.56 388.529L1062.85 379.275L1067.58 381.365C1069.08 382.034 1070.68 382.46 1072.32 382.617C1075.67 382.939 1081.1 383.112 1082.17 381.03L1081.95 389.019C1081.95 389.019 1082.73 391.387 1076.32 391.325Z" fill="#EF3A4C"/>
<path d="M1113.18 336.154L1139.03 336.109C1146 336.737 1146.83 330.776 1146.87 330.45L1148.41 322.127C1148.43 321.982 1148.34 321.842 1148.19 321.816C1148.05 321.79 1147.91 321.885 1147.88 322.03L1146.34 330.383C1146.32 330.621 1145.67 336.18 1139.07 335.578L1139.05 335.576L1113.18 335.621C1113.03 335.621 1112.91 335.742 1112.91 335.889C1112.91 336.036 1113.03 336.154 1113.18 336.154Z" fill="#21111D"/>
<path d="M1085.84 256.155C1085.33 256.848 1083.27 278.797 1082.96 282.144L1083.73 283.359L1093.34 295.154C1095.19 292.334 1095.95 290.709 1095.95 290.709C1095.95 290.709 1086.38 255.404 1085.84 256.155Z" fill="#FD7583"/>
<path d="M1124.4 305.461C1124.4 305.461 1113.56 303.73 1102.75 299.658C1091.94 295.586 1085.36 292.941 1085.36 292.941C1085.36 292.941 1085.79 289.862 1086.31 287.239L1087.21 282.625L1085.77 258.923C1085.77 258.923 1084.21 247.776 1097.87 240.996C1097.39 241.413 1098.98 240.452 1098.98 240.452C1098.98 240.452 1112.71 236.955 1117.77 238.183C1127.12 240.452 1131.92 254.739 1131.92 254.739C1135.8 267.92 1139.55 286.421 1136.7 293.645C1133.08 302.821 1126.44 305.034 1124.41 305.507C1124.4 305.476 1124.4 305.461 1124.4 305.461Z" fill="#FD7583"/>
<path d="M1083.81 273.548C1083.8 273.548 1083.79 273.548 1083.79 273.546C1083.65 273.533 1083.56 273.415 1083.57 273.283L1083.81 270.8C1084.48 258.146 1086.47 252.413 1086.49 252.357C1089.92 243.764 1098.81 240.26 1098.9 240.226C1099.02 240.178 1099.16 240.241 1099.21 240.364C1099.26 240.489 1099.2 240.627 1099.07 240.677C1098.98 240.711 1090.29 244.142 1086.95 252.528C1086.93 252.575 1084.96 258.254 1084.3 270.837L1084.05 273.33C1084.04 273.456 1083.93 273.548 1083.81 273.548Z" fill="#21111D"/>
<path d="M1099.69 240.278C1099.69 240.278 1101.94 244.684 1105.88 244.257C1109.81 243.827 1112.66 239.906 1112.46 238.039C1112.46 238.039 1103.73 238.589 1099.69 240.278Z" fill="#FE9F73"/>
<path d="M1077.44 269.306H1077.51H1085.16L1083.23 292.092H1077.51H1077.44H1071.52L1069.79 269.306H1077.44Z" fill="#49263E"/>
<path d="M1071.83 265.309H1077.44H1077.51H1083.12C1083.78 265.309 1084.31 265.847 1084.31 266.508H1077.51H1077.44H1070.64C1070.64 265.845 1071.17 265.309 1071.83 265.309Z" fill="#CE1D37"/>
<path d="M1069.96 267.123C1070.03 266.765 1070.35 266.508 1070.71 266.508H1077.44H1077.51H1084.24C1084.6 266.508 1084.92 266.765 1084.99 267.123L1085.63 270.169C1085.73 270.651 1085.37 271.104 1084.88 271.104H1077.51H1077.44H1070.07C1069.58 271.104 1069.22 270.651 1069.32 270.169L1069.96 267.123Z" fill="#EF3A4C"/>
<path d="M1084.79 276.301L1084.29 285.566H1077.52H1077.43H1070.67L1070.17 276.301H1077.43H1077.52H1084.79Z" fill="#EF3A4C"/>
<path d="M1084.44 285.725H1070.67C1070.58 285.725 1070.51 285.654 1070.51 285.564C1070.51 285.475 1070.58 285.402 1070.67 285.402H1084.13L1084.63 276.29C1084.63 276.202 1084.71 276.133 1084.8 276.139C1084.89 276.144 1084.96 276.219 1084.95 276.31L1084.44 285.725Z" fill="#21111D"/>
<path d="M1073.85 274.058C1073.79 274.058 1073.74 274.028 1073.71 273.976L1072.39 271.655C1072.35 271.577 1072.38 271.48 1072.46 271.435C1072.53 271.391 1072.63 271.417 1072.68 271.495L1073.99 273.816C1074.03 273.894 1074.01 273.991 1073.93 274.036C1073.9 274.052 1073.88 274.058 1073.85 274.058Z" fill="#21111D"/>
<path d="M1073.63 275.39C1073.57 275.39 1073.52 275.362 1073.49 275.31L1072.3 273.268C1072.26 273.19 1072.28 273.093 1072.36 273.048C1072.44 273.002 1072.53 273.028 1072.58 273.106L1073.77 275.148C1073.81 275.226 1073.79 275.323 1073.71 275.368C1073.68 275.384 1073.66 275.39 1073.63 275.39Z" fill="#21111D"/>
<path d="M1072.7 281.602C1071.72 280.146 1073.13 278.795 1073.13 278.795C1073.03 276.852 1074.03 276.038 1074.03 276.038C1074.03 276.038 1078.5 278.596 1081.2 280.211C1082.88 280.272 1083.61 279.579 1083.61 279.579L1083.64 279.654C1083.93 278.242 1084.3 276.476 1084.34 276.277C1084.4 275.939 1085.05 275.498 1085.69 276.727C1086.34 277.955 1087.77 281.012 1087.77 281.012L1092.12 279.443L1093.34 291.974C1093.34 291.974 1082.82 291.51 1081.22 291.328C1079.62 291.147 1074.37 288.828 1072.99 287.17C1071.61 285.512 1072.19 284.367 1072.19 284.367C1071.24 282.679 1072.7 281.602 1072.7 281.602Z" fill="#FE9F73"/>
<path d="M1076.26 281.269C1076.34 281.284 1076.43 281.248 1076.47 281.172C1076.52 281.079 1076.48 280.96 1076.39 280.911C1075.07 280.196 1073.28 278.665 1073.26 278.65C1073.18 278.581 1073.06 278.59 1072.99 278.672C1072.92 278.754 1072.93 278.875 1073.01 278.944C1073.08 279.009 1074.86 280.516 1076.21 281.25C1076.23 281.258 1076.24 281.265 1076.26 281.269Z" fill="#F07162"/>
<path d="M1075.82 283.677C1075.91 283.694 1076 283.644 1076.03 283.556C1076.07 283.456 1076.02 283.344 1075.92 283.305C1074.22 282.649 1072.84 281.466 1072.83 281.455C1072.75 281.386 1072.63 281.394 1072.56 281.474C1072.49 281.554 1072.5 281.677 1072.58 281.746C1072.64 281.796 1074.02 282.983 1075.78 283.666C1075.79 283.672 1075.8 283.674 1075.82 283.677Z" fill="#F07162"/>
<path d="M1074.88 286.345C1074.97 286.362 1075.06 286.315 1075.09 286.231C1075.13 286.131 1075.09 286.019 1074.99 285.978C1073.54 285.369 1072.33 284.24 1072.32 284.227C1072.24 284.154 1072.12 284.158 1072.04 284.236C1071.97 284.313 1071.97 284.437 1072.05 284.51C1072.1 284.557 1073.32 285.7 1074.84 286.334C1074.85 286.339 1074.87 286.343 1074.88 286.345Z" fill="#F07162"/>
<path d="M1130.19 302.97C1129.69 303.348 1129.21 303.669 1128.76 303.941C1126.06 305.58 1123.92 305.859 1123.83 305.872C1123.7 305.889 1123.57 305.792 1123.55 305.656C1123.54 305.52 1123.63 305.394 1123.77 305.377C1123.79 305.375 1125.91 305.094 1128.53 303.503C1130.94 302.035 1134.27 299.118 1136.47 293.554C1139.23 286.57 1135.7 268.602 1131.84 255.337C1131.8 255.205 1131.87 255.065 1132.01 255.028C1132.14 254.989 1132.28 255.065 1132.31 255.199C1136.2 268.537 1139.73 286.637 1136.93 293.738C1135.09 298.406 1132.45 301.26 1130.19 302.97Z" fill="#21111D"/>
<path d="M1116.64 283.178C1116.6 283.206 1116.56 283.225 1116.51 283.227C1116.37 283.236 1116.25 283.13 1116.24 282.992C1116.23 282.811 1115.24 264.815 1113.81 253.728C1113.79 253.592 1113.89 253.467 1114.02 253.45C1114.16 253.433 1114.29 253.53 1114.3 253.666C1115.74 264.772 1116.73 282.787 1116.74 282.966C1116.75 283.05 1116.71 283.128 1116.64 283.178Z" fill="#21111D"/>
<path d="M1105.34 247.34C1105.15 247.374 1104.95 247.407 1104.76 247.437C1104.64 247.454 1104.54 247.376 1104.52 247.262C1104.5 247.15 1104.58 247.044 1104.7 247.027C1113.21 245.748 1114.31 239.356 1114.31 239.291C1114.32 239.178 1114.42 239.094 1114.54 239.105C1114.65 239.116 1114.73 239.209 1114.73 239.323C1114.72 239.388 1113.64 245.813 1105.34 247.34Z" fill="#21111D"/>
<path d="M1092.42 278.618C1092.43 272.696 1092.36 266.011 1092.03 262.645C1092.02 262.507 1092.12 262.386 1092.25 262.373C1092.39 262.36 1092.51 262.459 1092.53 262.598C1092.86 265.996 1092.93 272.747 1092.92 278.702C1092.75 278.672 1092.59 278.644 1092.42 278.618Z" fill="#21111D"/>
<path d="M1097.35 284.173L1093.34 278.855L1089.23 278.35C1089.23 278.35 1086.76 283.577 1086.14 287.872C1085.52 292.166 1085.15 292.706 1085.15 292.706L1098.98 293.168L1097.35 284.173Z" fill="#FD7583"/>
<path d="M1103.67 300.152C1103.74 300.133 1103.79 300.079 1103.82 300.008C1103.85 299.891 1103.79 299.768 1103.67 299.733C1100.37 298.708 1087.11 293.409 1085.59 292.796C1085.79 287.224 1088.74 279.568 1089.23 278.352L1115.97 283.217L1119.71 284.549C1119.82 284.59 1119.95 284.529 1119.99 284.415C1120.03 284.3 1119.97 284.175 1119.86 284.134L1116.07 282.787L1088.95 277.856L1088.89 278.02C1088.85 278.106 1085.32 286.809 1085.14 292.937L1085.14 293.09L1085.28 293.146C1085.43 293.204 1100.04 299.062 1103.54 300.152C1103.58 300.165 1103.63 300.165 1103.67 300.152Z" fill="#21111D"/>
<path d="M1238.37 312.588C1238.37 312.588 1236.8 290.726 1228.32 294.97C1219.83 299.213 1212.91 327.071 1211.99 327.9C1211.07 328.731 1211.35 354.189 1211.35 354.189L1221.21 349.208C1221.22 349.21 1223.84 288.355 1238.37 312.588Z" fill="#258D8C"/>
<path d="M1228.86 267.324C1228.86 267.324 1209.85 284.337 1204.66 313.51C1199.47 342.683 1215.86 351.268 1215.86 351.268C1215.86 351.268 1218.2 289.929 1228.86 267.324Z" fill="#7FC6A6"/>
<path d="M1193.59 355.204C1193.59 355.204 1190.41 293.103 1174.36 266.177C1174.36 266.177 1202.53 282.988 1211.88 327.112C1212.41 329.597 1212.72 332.357 1213.12 335.017C1213.53 337.782 1213.78 340.233 1213.71 342.679C1213.6 346.999 1213 350.713 1212.83 353.442C1211.3 377.021 1193.59 355.204 1193.59 355.204Z" fill="#258D8C"/>
<path d="M1194.14 328.833C1193.04 319.979 1189.68 311.539 1184.28 304.44C1180.38 299.312 1175.86 295.415 1172.33 298.196C1164.49 304.375 1162.92 342.75 1162.92 342.75C1162.92 342.75 1171.78 316.183 1175.65 317.936C1179.52 319.689 1183.12 355.756 1183.12 355.756L1197.6 356.955L1194.14 328.833Z" fill="#7FC6A6"/>
<path d="M1213.89 353.036C1214.48 339.477 1212.78 326.465 1208.83 314.359C1205.67 304.673 1201.08 295.543 1195.17 287.222C1185.11 273.052 1174.59 266.05 1174.49 265.981L1174.23 266.372C1174.33 266.441 1184.8 273.404 1194.8 287.509C1204.03 300.521 1214.76 322.449 1213.42 353.012L1213.89 353.036Z" fill="#21111D"/>
<path d="M1216.1 351.276C1216.11 351.123 1216.7 335.74 1218.6 317.794C1220.34 301.242 1223.58 279.071 1229.07 267.423L1228.65 267.222C1223.13 278.929 1219.88 301.158 1218.13 317.746C1216.24 335.707 1215.64 351.104 1215.63 351.257L1216.1 351.276Z" fill="#21111D"/>
<path d="M1221.45 349.219C1221.45 349.119 1221.9 339.117 1223.37 328.982C1225.3 315.656 1228.09 308.158 1231.44 307.299C1233.42 306.791 1235.69 308.611 1238.17 312.707L1238.57 312.463C1235.97 308.169 1233.53 306.28 1231.33 306.843C1227.73 307.765 1224.89 315.192 1222.9 328.915C1221.43 339.073 1220.98 349.096 1220.98 349.195L1221.45 349.219Z" fill="#21111D"/>
<path d="M1197.37 356.985L1197.84 356.927L1194.37 328.803C1193.26 319.83 1189.83 311.356 1184.46 304.298C1181.06 299.828 1178.04 297.397 1175.48 297.073C1174.28 296.92 1173.17 297.235 1172.18 298.01C1168.88 300.612 1166.28 308.94 1164.45 322.757C1163.09 333.015 1162.69 342.642 1162.69 342.737L1163.15 342.757C1163.17 342.375 1164.81 304.421 1172.47 298.377C1173.36 297.682 1174.35 297.399 1175.43 297.535C1177.85 297.844 1180.77 300.213 1184.09 304.578C1189.41 311.569 1192.81 319.966 1193.9 328.857L1197.37 356.985Z" fill="#21111D"/>
<path d="M1182.29 322.29L1181.87 322.505L1184.92 328.404L1185.33 328.189L1182.29 322.29Z" fill="#21111D"/>
<path d="M1182.31 326.278L1181.9 326.505L1184.95 332.029L1185.36 331.803L1182.31 326.278Z" fill="#21111D"/>
<path d="M1216.03 287.162L1213.43 292.872L1213.85 293.066L1216.45 287.356L1216.03 287.162Z" fill="#21111D"/>
<path d="M1215.67 291.594L1213.46 295.59L1213.87 295.817L1216.08 291.821L1215.67 291.594Z" fill="#21111D"/>
<path d="M1230.59 297.065L1226.17 299.322L1226.38 299.74L1230.81 297.483L1230.59 297.065Z" fill="#21111D"/>
<path d="M1228.71 299.669L1226.1 301.263L1226.34 301.663L1228.96 300.07L1228.71 299.669Z" fill="#21111D"/>
<path d="M1226.24 347.63C1226.24 347.63 1225.42 393.03 1213.26 391.966H1203.69H1202.16H1192.6C1180.44 393.03 1179.61 347.63 1179.61 347.63C1191.12 345.892 1214.74 345.892 1226.24 347.63Z" fill="#F99247"/>
<path d="M1184.45 353.452L1184.11 353.774L1197.39 367.809L1197.73 367.487L1184.45 353.452Z" fill="#21111D"/>
<path d="M1188.35 362.496L1188 362.803L1195.31 371.215L1195.67 370.908L1188.35 362.496Z" fill="#21111D"/>
<path d="M1027.3 287.725C1027.3 287.725 1028.83 291.564 1027.55 294.467L1056.88 294.714L1059.59 294.467L1061.98 292.989V290.726L1061.31 288.856L1059.15 287.725H1027.3Z" fill="white"/>
<path d="M1058.26 295.088H1026.56C1026.36 295.088 1026.19 294.922 1026.19 294.715C1026.19 294.508 1026.36 294.341 1026.56 294.341H1058.26C1060.17 294.341 1061.72 292.897 1061.72 291.122C1061.72 289.347 1060.17 287.903 1058.26 287.903H1026.56C1026.36 287.903 1026.19 287.735 1026.19 287.53C1026.19 287.324 1026.36 287.156 1026.56 287.156H1058.26C1060.58 287.156 1062.47 288.935 1062.47 291.122C1062.47 293.307 1060.58 295.088 1058.26 295.088Z" fill="#EF3A4C"/>
<path d="M1043.29 291.205H1027.73C1027.69 291.205 1027.65 291.168 1027.65 291.123C1027.65 291.078 1027.69 291.041 1027.73 291.041H1043.29C1043.33 291.041 1043.37 291.078 1043.37 291.123C1043.37 291.168 1043.33 291.205 1043.29 291.205Z" fill="#AAC9F8"/>
<path d="M1060.59 291.205H1045.48C1045.43 291.205 1045.4 291.168 1045.4 291.123C1045.4 291.078 1045.43 291.041 1045.48 291.041H1060.59C1060.63 291.041 1060.67 291.078 1060.67 291.123C1060.67 291.168 1060.63 291.205 1060.59 291.205Z" fill="#AAC9F8"/>
<path d="M1060.18 292.693H1052.43C1052.38 292.693 1052.35 292.656 1052.35 292.611C1052.35 292.565 1052.38 292.529 1052.43 292.529H1060.18C1060.23 292.529 1060.26 292.565 1060.26 292.611C1060.26 292.656 1060.23 292.693 1060.18 292.693Z" fill="#AAC9F8"/>
<path d="M1051.29 292.693H1027.73C1027.69 292.693 1027.65 292.656 1027.65 292.611C1027.65 292.565 1027.69 292.529 1027.73 292.529H1051.29C1051.34 292.529 1051.37 292.565 1051.37 292.611C1051.37 292.656 1051.34 292.693 1051.29 292.693Z" fill="#AAC9F8"/>
<path d="M1058.26 295.171H1026.57C1026.31 295.171 1026.11 294.966 1026.11 294.714C1026.11 294.461 1026.31 294.256 1026.57 294.256C1026.61 294.256 1026.65 294.293 1026.65 294.338C1026.65 294.383 1026.61 294.42 1026.57 294.42C1026.41 294.42 1026.27 294.549 1026.27 294.711C1026.27 294.871 1026.4 295.003 1026.57 295.003H1058.26C1060.54 295.003 1062.39 293.261 1062.39 291.119C1062.39 288.977 1060.54 287.235 1058.26 287.235H1026.57C1026.41 287.235 1026.27 287.364 1026.27 287.526C1026.27 287.686 1026.4 287.818 1026.57 287.818C1026.61 287.818 1026.65 287.854 1026.65 287.9C1026.65 287.945 1026.61 287.982 1026.57 287.982C1026.31 287.982 1026.11 287.777 1026.11 287.524C1026.11 287.271 1026.31 287.066 1026.57 287.066H1058.26C1060.63 287.066 1062.56 288.882 1062.56 291.117C1062.56 293.356 1060.63 295.171 1058.26 295.171Z" fill="#21111D"/>
<path d="M1036.11 289.633C1036.11 289.633 1035.12 292.121 1035.69 293.951L1036.5 292.699C1036.5 292.699 1037.05 293.364 1037.4 293.951C1037.4 293.951 1038.02 289.862 1039.22 289.633H1036.11Z" fill="#7FC6A6"/>
<path d="M1060.18 289.715H1027.74C1027.69 289.715 1027.65 289.679 1027.65 289.633C1027.65 289.588 1027.69 289.551 1027.74 289.551H1060.18C1060.23 289.551 1060.26 289.588 1060.26 289.633C1060.26 289.679 1060.23 289.715 1060.18 289.715Z" fill="#AAC9F8"/>
<path d="M1077 391.325H1080.72L1074.02 297.032H1066.59L1077 391.325Z" fill="#FEC786"/>
<path d="M1089.5 295.152H823.119V302.126H1089.5V295.152Z" fill="#4C222E"/>
<path d="M1288.69 391.426H666.845V393H1288.69V391.426Z" fill="black"/>
</svg>
